<svg width="286" height="59" fill="none" xmlns="http://www.w3.org/2000/svg"><path d="M.188 49.451h37.678v7.804H.188v-7.804zm272.48-25.053l11.879-13.088h-8.853l-9.736 10.877V11.31h-7.055v27.506h7.09V27.229l10.409 11.586h9.096l-12.83-14.417zM42.016 26.21c-.19 5.18-.848 6.164-3.718 6.164v6.458h1.072c7.21 0 8.923-3.712 9.182-11.983l.311-9.15h6.657v21.116h7.055V11.31H42.5l-.484 14.9zm-30.624 4.731h14.871l2.473 7.874h8.248L25.865 5.732C24.793 2.538 23.548 0 19.295 0c-4.254 0-5.55 2.538-6.692 5.732L.948 38.815h7.747l2.697-7.874zm7.54-22.308h.19l4.98 15.678H13.623l5.309-15.678zm164.805 6.579h-7.868v-7.77h18.26V.535h-25.66v38.28h15.268c8.456 0 13.315-4.213 13.315-11.914 0-7.304-4.928-11.69-13.315-11.69zm-.363 16.68h-7.505v-9.946h7.505c3.908 0 6.104 1.726 6.104 4.972 0 3.246-2.196 4.973-6.104 4.973zM113.603 10.67V.483h-7.038v10.188a13.965 13.965 0 00-9.72 4.396 13.923 13.923 0 00-3.767 9.97 13.94 13.94 0 003.753 9.997 13.98 13.98 0 009.734 4.42v10.36h7.055v-10.36a13.973 13.973 0 009.739-4.415 13.927 13.927 0 003.748-10.003 13.802 13.802 0 00-8.181-13.169 13.858 13.858 0 00-5.323-1.196zm-7.021 22.135a7.162 7.162 0 01-4.766-2.587 7.144 7.144 0 01-1.58-5.183 7.228 7.228 0 011.607-5.16 7.247 7.247 0 014.739-2.61v15.54zm7.055 0v-15.54a7.25 7.25 0 014.74 2.61 7.228 7.228 0 011.606 5.16 7.171 7.171 0 01-1.591 5.174 7.193 7.193 0 01-4.755 2.596zm39.909-2.434V21.1c0-6.769-4.305-11-11.533-11s-11.447 4.49-11.793 9.17h7.141c.242-1.002 1.314-2.78 4.634-2.78a4.029 4.029 0 014.496 4.61h-6.916c-6.26 0-9.978 3.297-9.978 8.754a9.313 9.313 0 002.817 7.02 9.326 9.326 0 007.109 2.614 8.968 8.968 0 007.643-3.574 5.968 5.968 0 005.671 2.9h2.438v-6.353c-1.193 0-1.729-.57-1.729-2.09zm-7.055-1.727a4.832 4.832 0 01-1.466 3.668 4.84 4.84 0 01-3.721 1.34c-2.542 0-4.548-.916-4.548-3.661 0-2.746 2.231-3.143 4.115-3.143h5.62v1.796zm-66.347-8.979h-5.067V11.31h-7.055v27.506h12.243c7.66 0 10.374-4.973 10.374-9.67.035-6.06-3.769-9.479-10.495-9.479zm-.52 13.14h-4.547V25.9h4.548c2.438 0 3.908 1.105 3.908 3.453s-1.4 3.453-3.908 3.453zm144.351-2.434V21.1c0-6.769-4.306-11-11.534-11-7.228 0-11.447 4.49-11.793 9.17h7.142c.242-1.002 1.314-2.78 4.634-2.78a4.03 4.03 0 014.496 4.61h-6.917c-6.26 0-9.977 3.297-9.977 8.754a9.28 9.28 0 00.662 3.809 9.322 9.322 0 009.263 5.825 8.955 8.955 0 007.729-3.574 5.973 5.973 0 005.568 2.9h2.438v-6.353c-1.227 0-1.711-.57-1.711-2.09zm-7.021-1.727a4.842 4.842 0 01-5.187 5.007c-2.542 0-4.548-.915-4.548-3.66 0-2.746 2.231-3.143 4.115-3.143h5.62v1.796zm29.551-7.096h-9.735v-10.24h-7.055v27.523h7.055V27.99h9.735v10.826h7.055V11.31h-7.055v10.239z" fill="#253256"/></svg>