<svg width="286" height="59" fill="none" xmlns="http://www.w3.org/2000/svg"><path d="M0 49.451h37.678v7.804H0v-7.804zm272.48-25.053l11.879-13.088h-8.853l-9.735 10.877V11.31h-7.055v27.506h7.089V27.229l10.41 11.586h9.095l-12.83-14.417zM41.828 26.21c-.19 5.18-.847 6.164-3.718 6.164v6.458h1.073c7.21 0 8.922-3.712 9.181-11.983l.312-9.15h6.657v21.116h7.055V11.31H42.312l-.484 14.9zm-30.623 4.731h14.87l2.473 7.874h8.248L25.678 5.732C24.606 2.538 23.36 0 19.108 0c-4.255 0-5.551 2.538-6.693 5.732L.761 38.815h7.746l2.698-7.874zm7.539-22.308h.19l4.98 15.678H13.435l5.309-15.678zm164.806 6.579h-7.868v-7.77h18.26V.535h-25.661v38.28h15.269c8.455 0 13.314-4.213 13.314-11.914 0-7.304-4.928-11.69-13.314-11.69zm-.363 16.68h-7.505v-9.946h7.505c3.907 0 6.103 1.726 6.103 4.972 0 3.246-2.196 4.973-6.103 4.973zM113.415 10.67V.483h-7.037v10.188a13.964 13.964 0 00-9.72 4.396 13.923 13.923 0 00-3.768 9.97 13.94 13.94 0 003.754 9.997 13.979 13.979 0 009.734 4.42v10.36h7.054v-10.36a13.969 13.969 0 009.74-4.415 13.913 13.913 0 003.748-10.003 13.803 13.803 0 00-3.736-10.01 13.837 13.837 0 00-9.769-4.355zm-7.02 22.135a7.162 7.162 0 01-4.766-2.587 7.14 7.14 0 01-1.58-5.183 7.226 7.226 0 011.606-5.16 7.25 7.25 0 014.74-2.61v15.54zm7.055 0v-15.54a7.247 7.247 0 014.739 2.61 7.228 7.228 0 011.607 5.16 7.18 7.18 0 01-1.591 5.174 7.195 7.195 0 01-4.755 2.596zm39.909-2.434V21.1c0-6.769-4.306-11-11.534-11-7.228 0-11.447 4.49-11.793 9.17h7.142c.242-1.002 1.314-2.78 4.634-2.78a4.03 4.03 0 014.496 4.61h-6.917c-6.259 0-9.977 3.297-9.977 8.754a9.297 9.297 0 002.817 7.02 9.322 9.322 0 007.108 2.614 8.968 8.968 0 007.643-3.574 5.968 5.968 0 005.672 2.9h2.438v-6.353c-1.193 0-1.729-.57-1.729-2.09zm-7.055-1.727a4.791 4.791 0 01-.341 1.99 4.805 4.805 0 01-2.843 2.746 4.832 4.832 0 01-2.004.271c-2.542 0-4.547-.915-4.547-3.66 0-2.746 2.23-3.143 4.115-3.143h5.62v1.796zm-66.348-8.979H74.89V11.31h-7.055v27.506h12.242c7.66 0 10.375-4.973 10.375-9.67.035-6.06-3.77-9.479-10.496-9.479zm-.519 13.14H74.89V25.9h4.547c2.438 0 3.908 1.105 3.908 3.453s-1.4 3.453-3.908 3.453zm144.35-2.434V21.1c0-6.769-4.306-11-11.533-11-7.228 0-11.447 4.49-11.793 9.17h7.141c.242-1.002 1.314-2.78 4.634-2.78a4.03 4.03 0 014.496 4.61h-6.917c-6.259 0-9.977 3.297-9.977 8.754a9.297 9.297 0 002.817 7.02 9.335 9.335 0 007.109 2.614 8.966 8.966 0 007.729-3.574 5.97 5.97 0 005.568 2.9h2.438v-6.353c-1.228 0-1.712-.57-1.712-2.09zm-7.02-1.727a4.827 4.827 0 01-1.474 3.661 4.841 4.841 0 01-3.714 1.346c-2.542 0-4.547-.915-4.547-3.66 0-2.746 2.23-3.143 4.115-3.143h5.62v1.796zm29.551-7.096h-9.735v-10.24h-7.055v27.523h7.055V27.99h9.735v10.826h7.055V11.31h-7.055v10.239z" fill="#253256"/></svg>