<svg width="371" height="93" fill="none" xmlns="http://www.w3.org/2000/svg"><path d="M23.295 60.818c-7.816 0-14.184-6.305-14.184-14.047 0-7.741 6.366-14.048 14.18-14.048h.889V24.18h-.887c-12.567 0-22.8 10.139-22.8 22.59 0 12.532 10.233 22.67 22.802 22.67h.886v-8.618h-.886v-.004z" fill="#9AACDE"/><path fill-rule="evenodd" clip-rule="evenodd" d="M27.887 36.398V24.664c10.476 2.074 18.29 11.175 18.29 22.11 0 11.018-7.818 20.114-18.29 22.112V57.152h-4.594c-5.8 0-10.473-4.632-10.473-10.375 0-5.747 4.673-10.379 10.475-10.379h4.592zm43.995 20.59c2.375.008 4.678-.81 6.524-2.313l3.626 3.596c-2.658 2.39-6.203 3.83-10.15 3.83-8.542 0-15.39-6.947-15.39-15.328 0-8.38 6.848-15.247 15.39-15.247a15.432 15.432 0 0110.393 3.993l-3.626 3.59a10.152 10.152 0 00-6.767-2.551c-5.724 0-10.315 4.548-10.315 10.215S66.16 56.99 71.883 56.99zm159.137-10.694l11.36-13.569h4.512v28.096h-4.512V40.547l-11.36 13.249-11.522-13.569v20.598h-4.594v-28.1h4.594v.16l.079-.16 11.443 13.569zM101.049 62.02c8.46 0 15.39-6.786 15.39-15.247 0-8.38-6.93-15.247-15.39-15.247S85.66 38.392 85.66 46.773s6.85 15.247 15.39 15.247zm-.08-25.462c5.722 0 10.314 4.548 10.314 10.215s-4.592 10.216-10.314 10.216-10.314-4.548-10.314-10.216c0-5.667 4.592-10.215 10.314-10.215zM194.84 62.02c8.46 0 15.39-6.786 15.39-15.247 0-8.38-6.851-15.247-15.39-15.247-8.46 0-15.39 6.866-15.39 15.247s6.848 15.247 15.39 15.247zm0-25.462c5.722 0 10.313 4.548 10.313 10.215S200.479 56.99 194.84 56.99c-5.722 0-10.314-4.548-10.314-10.216 0-5.667 4.592-10.215 10.314-10.215zm-21.677-3.833h6.207l-14.021 14.128 13.858 13.972h-6.123l-11.685-11.738h-4.671v11.738h-4.512v-28.1h4.512V44.54h4.754l11.681-11.814zm191.209 0h6.12l-13.94 14.128 13.779 13.972h-6.124l-11.601-11.738h-4.755v11.738h-4.512v-28.1h4.512V44.54h4.755l11.766-11.814zm-55.598 28.096h-4.999l-2.736-6.063h-14.667l-2.738 6.067h-4.995l12.488-28.1h5.156l12.491 28.096zm-15.068-22.349l-5.317 11.814h10.636l-5.319-11.814zm-149.871 8.301a8.045 8.045 0 012.579 5.907c0 4.469-3.626 8.145-8.14 8.225h-16.596v-28.18h16.596c4.483-.007 8.125 3.637 8.14 8.141 0 2.315-1.049 4.392-2.579 5.907zm-5.64-9.496H126.27v7.179h11.925c2.014 0 3.624-1.595 3.624-3.59 0-1.998-1.61-3.589-3.624-3.589zM126.27 56.353h11.925c2.016 0 3.626-1.678 3.705-3.67a3.58 3.58 0 00-1.038-2.495 3.623 3.623 0 00-2.588-1.097H126.27v7.262zM333.107 44.54V32.805h4.593v27.937h-4.593V49.084H316.59V60.74h-4.591V32.806h4.591V44.54h16.517zm-64.301 0c4.513 0 8.22 3.67 8.22 8.141 0 4.469-3.705 8.145-8.221 8.221h-16.517V32.725h21.998v4.549h-17.404v7.265h11.924zm-11.923 11.814h11.926c2.014 0 3.626-1.678 3.626-3.67 0-1.917-1.612-3.592-3.626-3.592h-11.926v7.262z" fill="#253256"/></svg>