<svg width="370" height="93" fill="none" xmlns="http://www.w3.org/2000/svg"><path d="M22.803 60.819c-7.816 0-14.184-6.306-14.184-14.047 0-7.741 6.366-14.048 14.18-14.048h.888V24.18h-.886C10.234 24.18 0 34.319 0 46.77c0 12.532 10.234 22.67 22.803 22.67h.886v-8.618h-.886v-.004z" fill="#9AACDE"/><path fill-rule="evenodd" clip-rule="evenodd" d="M27.395 36.397V24.663c10.476 2.074 18.29 11.175 18.29 22.11 0 11.018-7.818 20.114-18.29 22.112V57.151H22.8c-5.8 0-10.473-4.632-10.473-10.375 0-5.747 4.673-10.379 10.475-10.379h4.592zm43.995 20.59c2.375.008 4.678-.81 6.524-2.313l3.626 3.596c-2.658 2.39-6.203 3.83-10.15 3.83C62.847 62.1 56 55.152 56 46.771c0-8.38 6.848-15.246 15.39-15.246a15.432 15.432 0 0110.393 3.992l-3.626 3.59a10.152 10.152 0 00-6.767-2.551c-5.724 0-10.315 4.548-10.315 10.215 0 5.668 4.592 10.216 10.314 10.216zm159.137-10.694l11.36-13.569h4.512v28.097h-4.512V40.546l-11.36 13.249-11.522-13.569v20.598h-4.594v-28.1h4.594v.16l.079-.16 11.443 13.569zM100.556 62.019c8.46 0 15.391-6.786 15.391-15.247 0-8.38-6.931-15.246-15.391-15.246s-15.388 6.866-15.388 15.246c0 8.381 6.849 15.247 15.388 15.247zm-.079-25.462c5.722 0 10.313 4.548 10.313 10.215 0 5.668-4.591 10.216-10.313 10.216S90.163 52.44 90.163 46.772c0-5.667 4.592-10.215 10.314-10.215zm93.871 25.462c8.46 0 15.39-6.786 15.39-15.247 0-8.38-6.851-15.246-15.39-15.246-8.46 0-15.39 6.866-15.39 15.246 0 8.381 6.848 15.247 15.39 15.247zm0-25.462c5.722 0 10.313 4.548 10.313 10.215 0 5.668-4.674 10.216-10.313 10.216-5.722 0-10.314-4.548-10.314-10.216 0-5.667 4.592-10.215 10.314-10.215zm-21.677-3.833h6.207l-14.021 14.128 13.858 13.972h-6.123l-11.685-11.737h-4.671v11.737h-4.512v-28.1h4.512v11.814h4.754l11.681-11.814zm191.209 0H370l-13.94 14.128 13.779 13.972h-6.124l-11.601-11.737h-4.755v11.737h-4.512v-28.1h4.512v11.814h4.755l11.766-11.814zm-55.598 28.097h-4.999l-2.736-6.064H285.88l-2.738 6.067h-4.995l12.488-28.1h5.155l12.492 28.097zm-15.068-22.35l-5.317 11.814h10.636l-5.319-11.814zm-149.871 8.301a8.045 8.045 0 012.579 5.907c0 4.469-3.626 8.145-8.14 8.225h-16.596v-28.18h16.596c4.482-.007 8.125 3.637 8.14 8.141 0 2.314-1.049 4.392-2.579 5.907zm-5.64-9.496h-11.926v7.179h11.926c2.014 0 3.624-1.595 3.624-3.59 0-1.998-1.61-3.589-3.624-3.589zm-11.926 19.076h11.926c2.016 0 3.626-1.678 3.705-3.669 0-.948-.395-1.838-1.038-2.496a3.623 3.623 0 00-2.588-1.097h-12.005v7.262zm206.838-11.814V32.804h4.593V60.74h-4.593V49.084h-16.517V60.74h-4.592V32.804h4.592v11.734h16.517zm-64.301 0c4.513 0 8.22 3.67 8.22 8.141 0 4.469-3.705 8.145-8.222 8.221h-16.516V32.724h21.998v4.549h-17.405v7.265h11.925zm-11.923 11.814h11.925c2.015 0 3.626-1.678 3.626-3.669 0-1.918-1.611-3.593-3.626-3.593h-11.925v7.262z" fill="#253256"/></svg>