<svg width="368" height="92" viewBox="0 0 368 92" fill="none" xmlns="http://www.w3.org/2000/svg">
<path d="M102.348 38.6875C104.452 38.6875 106.795 38.7607 108.826 40.1371C110.181 41.0363 111.773 42.8163 111.773 45.9908C111.773 49.4774 109.577 53.5878 103.483 53.5878H98.3585V63.1485H93.875V38.6875H102.348V38.6875ZM102.531 50.0096C103.519 50.0096 104.947 50.0462 106.081 48.9819C106.868 48.2664 107.289 47.0551 107.289 46.0276C107.289 45.0734 106.905 43.9173 106.118 43.2384C105.331 42.5594 104.087 42.2289 102.696 42.2289H98.3585V50.0096H102.531V50.0096ZM115.909 46.8166C117.153 45.6421 119.002 44.6145 121.765 44.6145C124.547 44.6145 126.395 45.6421 127.639 46.8166C129.488 48.5598 130.439 51.2757 130.439 54.0467C130.439 56.8176 129.488 59.5334 127.639 61.2766C126.395 62.4511 124.547 63.497 121.765 63.497C119.002 63.497 117.153 62.4511 115.909 61.2766C114.061 59.5334 113.109 56.8176 113.109 54.0467C113.091 51.2575 114.061 48.5598 115.909 46.8166V46.8166ZM118.928 59.1847C119.313 59.6434 120.209 60.5058 121.765 60.5058C123.339 60.5058 124.217 59.6618 124.602 59.1847C124.894 58.8729 125.956 57.4415 125.956 54.0467C125.956 50.6519 124.894 49.2388 124.602 48.9085C124.217 48.4498 123.321 47.5874 121.765 47.5874C120.209 47.5874 119.313 48.4314 118.928 48.9085C118.654 49.2388 117.574 50.6519 117.574 54.0467C117.574 57.4231 118.654 58.8545 118.928 59.1847ZM144.622 51.6244C144.549 50.7069 144.201 49.6243 143.725 48.9453C143.286 48.303 142.444 47.5874 141.017 47.5874C139.626 47.5874 138.711 48.303 138.144 49.2572C137.247 50.7251 137.192 53.0007 137.192 54.0467C137.192 55.7165 137.43 57.7168 138.144 58.8544C138.601 59.57 139.535 60.4876 141.017 60.4876C142.078 60.4876 142.975 60.0655 143.652 59.1297C144.183 58.3773 144.549 57.3129 144.604 56.3771L148.374 56.836C148.154 58.5058 147.422 60.3774 146.104 61.5703C145.006 62.5611 143.286 63.4603 140.87 63.4603C138.18 63.4603 136.424 62.3961 135.399 61.4235C134.008 60.1022 132.69 57.7534 132.69 54.0467C132.69 50.5967 133.861 48.5232 134.795 47.4222C136.112 45.844 138.345 44.5779 140.98 44.5779C143.231 44.5779 145.08 45.3669 146.232 46.5782C147.404 47.7524 148.117 49.5325 148.374 51.129L144.622 51.6244V51.6244ZM162.264 51.6244C162.191 50.7069 161.843 49.6243 161.367 48.9453C160.946 48.303 160.086 47.5874 158.659 47.5874C157.268 47.5874 156.353 48.303 155.786 49.2572C154.907 50.7251 154.834 53.0007 154.834 54.0467C154.834 55.7165 155.09 57.7168 155.786 58.8544C156.243 59.57 157.176 60.4876 158.659 60.4876C159.72 60.4876 160.617 60.0655 161.294 59.1297C161.825 58.3773 162.191 57.3129 162.245 56.3771L166.015 56.836C165.814 58.5058 165.064 60.3774 163.746 61.5703C162.648 62.5611 160.946 63.4603 158.53 63.4603C155.822 63.4603 154.084 62.3961 153.059 61.4235C151.668 60.1022 150.35 57.7534 150.35 54.0467C150.35 50.5967 151.522 48.5232 152.455 47.4222C153.772 45.844 156.005 44.5779 158.64 44.5779C160.873 44.5779 162.721 45.3669 163.893 46.5782C165.064 47.7524 165.777 49.5325 166.034 51.129L162.264 51.6244V51.6244ZM185.048 57.8634C184.408 59.9921 183.126 61.24 182.065 61.9924C180.637 62.9464 178.789 63.497 176.831 63.497C174.379 63.497 171.89 62.4511 170.389 60.9279C168.998 59.515 167.974 57.0376 167.974 54.1199C167.974 50.4133 169.511 47.9543 171.176 46.5598C172.146 45.734 173.958 44.5963 176.684 44.5963C180.143 44.5963 182.339 46.1927 183.511 47.8443C184.755 49.5509 185.34 51.9364 185.34 54.0099V54.8357H172.476C172.476 55.0376 172.439 56.6891 173.079 58.0103C174.031 60.0105 175.788 60.5058 176.996 60.5058C177.947 60.5058 179.155 60.2124 180.162 59.1847C180.766 58.5424 181.022 57.9368 181.113 57.3681L185.048 57.8634V57.8634ZM180.857 52.1199C180.857 51.0922 180.601 49.9178 180.07 49.1288C179.393 48.1377 178.185 47.4588 176.868 47.4588C175.513 47.4588 174.342 48.1377 173.628 48.9819C173.061 49.6977 172.567 50.7986 172.567 52.1199H180.857V52.1199ZM202.89 44.9632V63.1485H198.756V48.0461H194.069C193.961 50.5051 193.887 51.4959 193.814 53.1841C193.704 55.0742 193.575 59.0563 191.966 61.24C191.069 62.4143 189.97 62.8732 189.184 63.0933C188.726 63.2401 188.232 63.2951 187.72 63.2951C187.371 63.2951 187.006 63.2585 186.658 63.1485V60.0105H187.006C187.537 59.9737 188.25 59.6985 188.707 59.3316C190.135 58.1937 190.263 55.6247 190.41 53.5878C190.594 50.9088 190.63 49.3122 190.647 46.89L190.684 44.9632H202.89V44.9632ZM211.364 51.4409H215.92C217.091 51.4409 219.361 51.5877 220.862 53.0741C222.216 54.3952 222.345 56.2486 222.345 57.2397C222.345 59.8453 221.282 61.1666 220.458 61.8456C220.166 62.0658 218.831 63.1301 216.269 63.1301H207.246V44.9632H211.364V51.4409V51.4409ZM211.364 60.139H214.603C215.39 60.139 216.232 60.1022 216.946 59.4966C217.366 59.0929 217.878 58.4324 217.878 57.2763C217.878 56.2854 217.586 55.4963 216.781 54.9641C216.067 54.5054 215.17 54.432 214.621 54.432H211.382V60.139H211.364V60.139ZM228.347 44.9632L231.696 50.6151L235.173 44.9632H238.942L233.635 53.1841L239.931 63.1301H235.1L230.982 56.2854L226.644 63.1301H222.875L229.061 53.698L223.515 44.9632H228.347V44.9632ZM243.115 46.8166C244.359 45.6421 246.209 44.6145 248.97 44.6145C251.752 44.6145 253.602 45.6421 254.846 46.8166C256.694 48.5598 257.646 51.2757 257.646 54.0467C257.646 56.8176 256.676 59.5334 254.846 61.2766C253.602 62.4511 251.752 63.497 248.97 63.497C246.209 63.497 244.359 62.4511 243.115 61.2766C241.267 59.5334 240.315 56.8176 240.315 54.0467C240.315 51.2575 241.267 48.5598 243.115 46.8166ZM246.135 59.1847C246.519 59.6434 247.416 60.5058 248.97 60.5058C250.545 60.5058 251.424 59.6618 251.826 59.1847C252.101 58.8729 253.18 57.4415 253.18 54.0467C253.18 50.6519 252.119 49.2388 251.826 48.9085C251.442 48.4498 250.545 47.5874 248.97 47.5874C247.416 47.5874 246.519 48.4314 246.135 48.9085C245.842 49.2388 244.781 50.6519 244.781 54.0467C244.781 57.4231 245.86 58.8545 246.135 59.1847ZM259.859 49.8811C260.392 47.679 261.781 46.4679 262.77 45.8624C263.373 45.4771 265.04 44.6145 267.893 44.6145C269.669 44.6145 271.48 44.9266 272.835 45.6789C274.829 46.78 275.323 48.3764 275.323 49.5325C275.323 50.7803 274.719 53.1659 271.627 53.5144V53.5878C272.688 53.7347 273.86 54.1934 274.574 54.9457C275.215 55.6247 275.708 56.7626 275.708 57.9736C275.708 59.7903 274.646 61.3868 273.292 62.2859C271.664 63.3503 269.412 63.497 267.748 63.497C266.063 63.497 263.52 63.3135 261.727 61.9006C260.738 61.1116 259.804 59.7537 259.531 58.0471L263.263 57.4047C263.41 57.9736 263.722 58.8361 264.142 59.3316C265.076 60.4142 266.52 60.5058 267.454 60.5058C268.388 60.5058 269.376 60.3958 270.163 59.8637C270.877 59.3682 271.225 58.6892 271.225 57.79C271.225 57.0378 271.079 56.4321 270.438 55.9C269.614 55.221 268.517 55.111 267.491 55.111H265.607V52.3217H267.491C268.205 52.3217 269.229 52.1749 269.798 51.8996C270.548 51.5143 270.968 50.872 270.968 49.8261C270.968 49.2572 270.748 48.7067 270.218 48.2846C269.394 47.6056 268.223 47.569 267.62 47.569C266.796 47.569 265.588 47.679 264.599 48.5232C264.179 48.8719 263.612 49.5509 263.428 50.6151L259.859 49.8811V49.8811ZM296.809 42.9631H285.041V48.3764H290.274C292.161 48.3764 293.972 48.5232 295.82 49.8077C297.633 51.0556 298.767 52.9089 298.767 55.5881C298.767 58.0837 297.833 59.9371 296.662 61.1114C294.888 62.8914 292.856 63.1485 290.733 63.1485H279.351V38.6875H296.809V42.9631ZM285.041 58.8544H289.634C290.495 58.8544 291.282 58.8177 292.087 57.9919C292.875 57.2029 292.983 56.3221 292.983 55.6431C292.983 54.8723 292.765 54.0833 292.087 53.4044C291.282 52.597 290.238 52.5052 289.489 52.5052H285.041V58.8544V58.8544ZM301.696 50.0096C302.263 47.5506 303.853 46.3027 304.824 45.734C306.233 44.9082 308.118 44.5963 310.48 44.5963C313.462 44.5963 316.482 44.9816 317.836 47.8075C318.55 49.2756 318.477 50.8354 318.477 52.1933V59.2213C318.477 60.6895 318.677 62.0474 319.007 63.1485H313.847C313.7 62.4327 313.59 61.4785 313.572 60.2674C312.895 61.4785 311.247 63.5154 307.496 63.5154C305.83 63.5154 304.11 63.0933 302.94 62.1208C301.804 61.1848 301.09 59.6985 301.09 58.0653C301.09 56.2486 301.877 54.0649 304.971 52.7804C306.966 51.9546 310.204 51.6794 311.65 51.606L313.351 51.5327V51.1472C313.351 50.6517 313.315 49.5875 312.821 49.0003C312.144 48.2112 310.79 48.1745 310.259 48.1745C309.527 48.1745 308.63 48.248 307.879 48.7067C307.423 48.9819 306.819 49.5691 306.599 50.5601L301.696 50.0096V50.0096ZM311.76 54.542C309.984 54.6889 308.21 54.8723 307.202 56.1018C306.929 56.4505 306.635 57.001 306.635 57.735C306.635 58.5242 307.021 59.0563 307.423 59.3316C307.916 59.7169 308.667 59.9003 309.38 59.9003C310.443 59.9003 311.687 59.4416 312.401 58.5792C312.511 58.469 313.351 57.4047 313.351 55.3312V54.377L311.76 54.542ZM327.883 44.9632V51.7712H333.61V44.9632H338.9V63.1301H333.61V55.4963H327.883V63.1301H322.594V44.9632H327.883V44.9632ZM348.325 44.9632V51.9546H349.752C351.288 51.9546 351.929 51.2023 352.314 50.3766C353.065 48.7801 353.028 47.5322 353.705 46.2845C354.235 45.2935 354.949 45.0366 355.406 44.9632H359.781C359.214 45.5687 358.718 46.2845 358.39 46.9266C357.823 48.1011 357.292 50.028 356.962 50.8538C356.542 51.9914 355.828 53.1291 354.015 53.2759V53.3494C354.986 53.4962 355.975 53.9915 356.723 55.0926C357.182 55.7715 357.492 56.6523 358.006 58.0471C358.5 59.4784 358.718 59.9737 359.177 61.0748C359.542 61.9006 359.744 62.3961 360.348 63.1485H355.369C354.584 62.8914 354.052 62.3593 353.411 60.5058C352.918 59.0929 352.844 58.5792 352.516 57.79L352.259 57.1479C351.729 55.7899 351.015 55.5147 349.916 55.5147H348.325V63.1485H343.036V44.9632H348.325V44.9632Z" fill="#253256"/>
<path d="M45.1264 90.1599C23.5501 90.1599 6 72.5803 6 50.9452C6 38.5221 11.6914 27.0898 21.6103 19.603L22.0129 19.2726V1.83984H44.4675V11.7307H45.1264C66.6842 11.7307 84.2343 29.3285 84.2343 50.9636C84.2343 72.5803 66.6842 90.1599 45.1264 90.1599Z" fill="#253256"/>
<path d="M33.791 51.568L41.9348 43.549V38.0989L33.791 46.0814V51.568ZM33.791 31.2543L41.9348 23.2168V18.0788L33.791 26.061V31.2543ZM33.791 37.9704L41.9348 29.9514V24.8133L33.791 32.7956V37.9704ZM31.467 18.1338L30.3873 17.0878V4.37109H29.143V15.8767L28.0814 14.8124V4.37109H26.8371V13.6197L25.7574 12.5553V4.37109H24.5312V16.5006L32.6931 24.5197V4.37109H31.467V18.1338ZM33.791 44.6866L41.9348 36.6675V31.5295L33.791 39.5118V44.6866ZM24.5312 43.549L32.6931 51.568V46.0814L24.5312 38.0989V43.549V43.549ZM40.7086 12.5553L39.6289 13.6197V4.37109H38.4027V14.8308L37.323 15.8767V4.37109H36.0969V17.0695L35.0172 18.1338V4.37109H33.791V24.5197L41.9348 16.5006V4.37109H40.7086V12.5553V12.5553ZM24.5312 23.2168L32.6931 31.2543V26.061L24.5312 18.0788V23.2168V23.2168ZM24.5312 29.9514L32.6931 37.9704V32.7956L24.5312 24.8133V29.9514V29.9514ZM24.5312 36.6675L32.6931 44.6866V39.5118L24.5312 31.5295V36.6675V36.6675ZM73.0822 40.9065H53.2629C53.6839 40.246 53.9217 39.4752 53.9217 38.6494C53.9217 36.2822 52.0001 34.3738 49.6394 34.3738C47.2786 34.3738 45.3754 36.3006 45.3754 38.6494C45.3754 39.5854 45.6682 40.4294 46.1806 41.1268C45.8147 41.3652 45.5583 41.7873 45.5583 42.2829C45.5583 42.76 45.8147 43.1821 46.1806 43.4205C45.6866 44.1179 45.3754 44.9803 45.3754 45.8979C45.3754 48.2651 47.2786 50.1735 49.6394 50.1735C52.0001 50.1735 53.9217 48.2651 53.9217 45.8979C53.9217 45.0721 53.6839 44.2829 53.2629 43.6408H68.013V44.54H66.5491V45.8061H68.013V47.109H66.5491V49.5128H68.013V48.4301H70.1725V49.5128H71.6183V47.109H70.1725V45.8061H71.6183V44.54H70.1725V43.6408H73.0822C73.6496 43.6408 74.1071 43.1637 74.1071 42.5947V41.9526C74.1071 41.3836 73.6313 40.9065 73.0822 40.9065V40.9065ZM51.8538 45.8979C51.8538 47.109 50.8655 48.0998 49.6394 48.0998C48.4316 48.0998 47.4434 47.109 47.4434 45.8979C47.4434 45.4574 47.5715 45.0353 47.8093 44.6866L48.4132 43.6408C48.029 43.3105 47.791 42.815 47.791 42.2645C47.791 41.7139 48.029 41.2186 48.4132 40.8881L47.8093 39.8423C47.5715 39.4936 47.4434 39.0899 47.4434 38.6312C47.4434 37.4199 48.4316 36.4291 49.6394 36.4291C50.8472 36.4291 51.8538 37.4199 51.8538 38.6312C51.8538 39.5302 50.8107 41.6773 50.8107 41.6773V42.8334C50.8107 42.8518 51.8538 44.9987 51.8538 45.8979V45.8979Z" fill="#9AACDE"/>
<path d="M17.125 38.3008V43.6408C17.125 48.7422 19.3393 52.0268 20.6203 53.2931C21.3707 54.0271 28.947 61.514 29.0569 61.6057C31.4177 63.9178 31.8203 64.6702 32.3509 65.9915V60.0827C32.3509 54.8161 29.6974 52.7792 28.3248 51.4397C25.1223 48.3201 22.9994 46.2649 21.2609 44.5399C18.0034 41.2553 17.125 38.3008 17.125 38.3008V38.3008ZM28.325 64.6336C25.1407 61.4956 22.9994 59.4588 21.2793 57.7338C18.0035 54.4492 17.1434 52.2287 17.1434 52.2287V56.8345C17.1434 61.9359 19.4492 65.1841 20.6205 66.5236C21.3707 67.2576 28.9654 74.7078 29.0569 74.7996C31.4177 77.1117 31.8203 78.2128 32.3509 79.5157V73.2764C32.3509 68.01 29.6792 65.9731 28.325 64.6336V64.6336Z" fill="white"/>
<path d="M45.1243 14.2461C44.5388 14.2461 43.953 14.2644 43.3675 14.2828V16.7784C43.953 16.7417 44.5204 16.7417 45.1243 16.7417C63.9554 16.7417 79.2181 32.0458 79.2181 50.9467C79.2181 69.8291 63.9554 85.1333 45.1243 85.1333C26.2932 85.1333 11.0123 69.8291 11.0123 50.9467C11.0123 40.4686 15.7155 31.0916 23.1272 24.8159V21.623C14.2515 28.3207 8.52344 38.9639 8.52344 50.9467C8.52344 71.2054 24.9022 87.6289 45.1243 87.6289C65.328 87.6289 81.7069 71.2054 81.7069 50.9467C81.7069 30.6879 65.328 14.2461 45.1243 14.2461Z" fill="white"/>
<path d="M71 70.103C71.5672 69.3322 72.0981 68.5248 72.6104 67.699V62.7813H71V70.103ZM75.6849 60.9828C75.9228 60.2673 76.1241 59.5517 76.307 58.8359H71V60.1388H71.8052C73.2143 60.102 74.8065 60.0838 75.6849 60.9828Z" fill="white"/>
<path d="M40.352 58.6523H38.9062V73.2774H40.352V58.6523V58.6523Z" fill="white"/>
<path d="M35.5864 55.8441H40.3444C41.5705 55.8441 42.4308 56.1009 42.9248 56.5781C43.4189 57.0552 43.6569 57.9178 43.6569 59.1472V72.8181C43.6569 74.0476 43.4189 74.9102 42.9248 75.3873C42.1744 76.1395 40.7837 76.1395 39.6308 76.1395C39.3746 76.1213 39.1184 76.1213 38.8988 76.1213V82.5988C39.3746 82.6906 39.8504 82.7824 40.3444 82.8558V77.5342C42.5405 77.5342 43.968 76.7818 44.6451 75.2771V83.2043H45.1209C45.4138 83.2043 45.7248 83.2043 46.0177 83.1861V59.3857C46.0177 58.1196 46.2738 57.2388 46.7496 56.7433C47.2255 56.2478 48.0855 55.9909 49.2933 55.9909C50.5195 55.9909 52.3313 55.8075 53.2646 56.7433C53.7404 57.2388 53.9599 58.1378 53.9599 59.3857V66.3956H50.7026V58.9086H49.2933V82.9293C49.7691 82.8741 50.2268 82.8006 50.7026 82.709V67.8085H53.9599V81.9566C54.637 81.7732 55.296 81.5529 55.9547 81.3143V68.359C55.9547 66.8911 56.3025 65.79 57.7848 65.2945L56.1377 56.2846H59.4319L59.9809 66.1203H60.3835L60.9325 56.2846H64.4095L62.5429 65.2945C64.0985 65.845 64.4095 66.7993 64.4095 68.359V76.7268C65.3795 75.9928 66.2944 75.222 67.1728 74.3779V56.1928H76.8356C76.9088 55.7525 76.9637 55.3304 77.0185 54.8716H54.4357L54.7469 56.5046C54.0331 55.1835 52.6789 54.523 50.6842 54.523H49.2752C46.8777 54.523 45.4319 55.4772 44.8647 57.3856C44.3522 55.3854 42.8334 54.3945 40.3262 54.3945H34.1406V81.2409C34.6164 81.4061 35.0923 81.5711 35.5681 81.718V55.8441H35.5864V55.8441ZM65.5808 66.1753L64.0253 64.689L65.5808 56.6149V66.1753Z" fill="white"/>
<path d="M59.4531 79.8288C59.9473 79.5719 60.4413 79.3151 60.9354 79.0398V67.9746H59.4531V79.8288Z" fill="white"/>
</svg>
