<svg width="368" height="92" fill="none" xmlns="http://www.w3.org/2000/svg"><path d="M102.348 38.688c2.104 0 4.447.073 6.478 1.45 1.355.898 2.947 2.678 2.947 5.853 0 3.486-2.196 7.597-8.29 7.597h-5.124v9.56h-4.484v-24.46h8.473zm.183 11.322c.988 0 2.416.036 3.55-1.028.787-.716 1.208-1.927 1.208-2.954 0-.955-.384-2.11-1.171-2.79-.787-.679-2.031-1.01-3.422-1.01h-4.337v7.782h4.172zm13.378-3.193c1.244-1.175 3.093-2.203 5.856-2.203 2.782 0 4.63 1.028 5.874 2.203 1.849 1.743 2.8 4.459 2.8 7.23 0 2.77-.951 5.486-2.8 7.23-1.244 1.174-3.092 2.22-5.874 2.22-2.763 0-4.612-1.046-5.856-2.22-1.848-1.744-2.8-4.46-2.8-7.23-.018-2.79.952-5.487 2.8-7.23zm3.019 12.368a3.617 3.617 0 002.837 1.32c1.574 0 2.452-.843 2.837-1.32.292-.312 1.354-1.744 1.354-5.138 0-3.395-1.062-4.808-1.354-5.139a3.617 3.617 0 00-2.837-1.32c-1.556 0-2.452.843-2.837 1.32-.274.33-1.354 1.744-1.354 5.139 0 3.376 1.08 4.808 1.354 5.138zm25.694-7.56c-.073-.918-.421-2-.897-2.68-.439-.642-1.281-1.358-2.708-1.358-1.391 0-2.306.716-2.873 1.67-.897 1.468-.952 3.744-.952 4.79 0 1.67.238 3.67.952 4.807.457.716 1.391 1.634 2.873 1.634 1.061 0 1.958-.422 2.635-1.358.531-.753.897-1.817.952-2.753l3.77.459c-.22 1.67-.952 3.541-2.27 4.734-1.098.991-2.818 1.89-5.234 1.89-2.69 0-4.446-1.064-5.471-2.037-1.391-1.32-2.709-3.67-2.709-7.376 0-3.45 1.171-5.524 2.105-6.625 1.317-1.578 3.55-2.844 6.185-2.844 2.251 0 4.1.789 5.252 2 1.172 1.174 1.885 2.954 2.142 4.551l-3.752.495zm17.642 0c-.073-.918-.421-2-.897-2.68-.421-.642-1.281-1.358-2.708-1.358-1.391 0-2.306.716-2.873 1.67-.879 1.468-.952 3.744-.952 4.79 0 1.67.256 3.67.952 4.807.457.716 1.39 1.634 2.873 1.634 1.061 0 1.958-.422 2.635-1.358.531-.753.897-1.817.951-2.753l3.77.459c-.201 1.67-.951 3.541-2.269 4.734-1.098.991-2.8 1.89-5.216 1.89-2.708 0-4.446-1.064-5.471-2.037-1.391-1.32-2.709-3.67-2.709-7.376 0-3.45 1.172-5.524 2.105-6.625 1.317-1.578 3.55-2.844 6.185-2.844 2.233 0 4.081.789 5.253 2 1.171 1.174 1.884 2.954 2.141 4.551l-3.77.495zm22.784 6.238c-.64 2.13-1.922 3.377-2.983 4.13-1.428.953-3.276 1.504-5.234 1.504-2.452 0-4.941-1.046-6.442-2.57-1.391-1.412-2.415-3.89-2.415-6.807 0-3.707 1.537-6.166 3.202-7.56.97-.826 2.782-1.964 5.508-1.964 3.459 0 5.655 1.597 6.827 3.248 1.244 1.707 1.829 4.092 1.829 6.166v.826h-12.864c0 .202-.037 1.853.603 3.174.952 2 2.709 2.496 3.917 2.496.951 0 2.159-.294 3.166-1.321.604-.643.86-1.248.951-1.817l3.935.495zm-4.191-5.743c0-1.028-.256-2.202-.787-2.991-.677-.991-1.885-1.67-3.202-1.67-1.355 0-2.526.679-3.24 1.523-.567.716-1.061 1.817-1.061 3.138h8.29zm22.033-7.157v18.185h-4.134V48.046h-4.687c-.108 2.46-.182 3.45-.255 5.138-.11 1.89-.239 5.872-1.848 8.056-.897 1.174-1.996 1.633-2.782 1.853-.458.147-.952.202-1.464.202-.349 0-.714-.037-1.062-.147V60.01h.348c.531-.036 1.244-.311 1.701-.678 1.428-1.138 1.556-3.707 1.703-5.744.184-2.68.22-4.276.237-6.698l.037-1.927h12.206zm8.474 6.478h4.556c1.171 0 3.441.147 4.942 1.633 1.354 1.321 1.483 3.175 1.483 4.166 0 2.605-1.063 3.927-1.887 4.606-.292.22-1.627 1.284-4.189 1.284h-9.023V44.963h4.118v6.478zm0 8.698h3.239c.787 0 1.629-.037 2.343-.642.42-.404.932-1.065.932-2.22 0-.992-.292-1.78-1.097-2.313-.714-.459-1.611-.532-2.16-.532h-3.239v5.707h-.018zm16.983-15.176l3.349 5.652 3.477-5.652h3.769l-5.307 8.221 6.296 9.946H235.1l-4.118-6.845-4.338 6.845h-3.769l6.186-9.432-5.546-8.735h4.832zm14.768 1.854c1.244-1.175 3.094-2.203 5.855-2.203 2.782 0 4.632 1.028 5.876 2.203 1.848 1.743 2.8 4.459 2.8 7.23 0 2.77-.97 5.486-2.8 7.23-1.244 1.174-3.094 2.22-5.876 2.22-2.761 0-4.611-1.046-5.855-2.22-1.848-1.744-2.8-4.46-2.8-7.23 0-2.79.952-5.487 2.8-7.23zm3.02 12.368a3.614 3.614 0 002.835 1.32 3.603 3.603 0 002.856-1.32c.275-.312 1.354-1.744 1.354-5.138 0-3.395-1.061-4.808-1.354-5.139a3.628 3.628 0 00-2.856-1.32c-1.554 0-2.451.843-2.835 1.32-.293.33-1.354 1.744-1.354 5.139 0 3.376 1.079 4.808 1.354 5.138zm13.724-9.304a6.39 6.39 0 012.911-4.019c.603-.385 2.27-1.248 5.123-1.248 1.776 0 3.587.313 4.942 1.065 1.994 1.101 2.488 2.697 2.488 3.853 0 1.248-.604 3.634-3.696 3.982v.074c1.061.147 2.233.605 2.947 1.358.641.679 1.134 1.817 1.134 3.028 0 1.816-1.062 3.413-2.416 4.312-1.628 1.064-3.88 1.211-5.544 1.211-1.685 0-4.228-.184-6.021-1.596-.989-.79-1.923-2.147-2.196-3.854l3.732-.642c.147.569.459 1.431.879 1.927.934 1.082 2.378 1.174 3.312 1.174.934 0 1.922-.11 2.709-.642.714-.496 1.062-1.175 1.062-2.074 0-.752-.146-1.358-.787-1.89-.824-.679-1.921-.789-2.947-.789h-1.884v-2.79h1.884c.714 0 1.738-.146 2.307-.421.75-.386 1.17-1.028 1.17-2.074 0-.569-.22-1.12-.75-1.541-.824-.68-1.995-.716-2.598-.716-.824 0-2.032.11-3.021.954-.42.349-.987 1.028-1.171 2.092l-3.569-.734zm36.95-6.918h-11.768v5.413h5.233c1.887 0 3.698.147 5.546 1.432 1.813 1.248 2.947 3.1 2.947 5.78 0 2.496-.934 4.35-2.105 5.523-1.774 1.78-3.806 2.038-5.929 2.038h-11.382V38.686h17.458v4.276zm-11.768 15.891h4.593c.861 0 1.648-.036 2.453-.862.788-.79.896-1.67.896-2.349 0-.77-.218-1.56-.896-2.239-.805-.807-1.849-.899-2.598-.899h-4.448v6.35zm16.655-8.844a6.56 6.56 0 013.128-4.276c1.409-.826 3.294-1.138 5.656-1.138 2.982 0 6.002.386 7.356 3.212.714 1.468.641 3.027.641 4.385v7.028c0 1.469.2 2.826.53 3.928h-5.16c-.147-.716-.257-1.67-.275-2.882-.677 1.211-2.325 3.248-6.076 3.248-1.666 0-3.386-.422-4.556-1.394-1.136-.936-1.85-2.422-1.85-4.056 0-1.816.787-4 3.881-5.285 1.995-.825 5.233-1.1 6.679-1.174l1.701-.073v-.386c0-.495-.036-1.56-.53-2.147-.677-.789-2.031-.825-2.562-.825-.732 0-1.629.073-2.38.532-.456.275-1.06.862-1.28 1.853l-4.903-.55zm10.064 4.532c-1.776.147-3.55.33-4.558 1.56a2.63 2.63 0 00-.567 1.633c0 .79.386 1.321.788 1.597.493.385 1.244.568 1.957.568 1.063 0 2.307-.458 3.021-1.32.11-.111.95-1.175.95-3.249v-.954l-1.591.165zm16.123-9.579v6.808h5.727v-6.808h5.29V63.13h-5.29v-7.634h-5.727v7.634h-5.289V44.963h5.289zm20.442 0v6.992h1.427c1.536 0 2.177-.753 2.562-1.578.751-1.597.714-2.845 1.391-4.093.53-.99 1.244-1.247 1.701-1.32h4.375a8.958 8.958 0 00-1.391 1.963c-.567 1.174-1.098 3.101-1.428 3.927-.42 1.137-1.134 2.275-2.947 2.422v.073c.971.147 1.96.643 2.708 1.744.459.678.769 1.56 1.283 2.954.494 1.431.712 1.927 1.171 3.028.365.826.567 1.321 1.171 2.073h-4.979c-.785-.257-1.317-.789-1.958-2.642-.493-1.413-.567-1.927-.895-2.716l-.257-.642c-.53-1.358-1.244-1.633-2.343-1.633h-1.591v7.633h-5.289V44.963h5.289zM45.126 90.16C23.55 90.16 6 72.58 6 50.945c0-12.423 5.691-23.855 15.61-31.342l.403-.33V1.84h22.454v9.89h.66c21.557 0 39.107 17.599 39.107 39.234 0 21.616-17.55 39.196-39.108 39.196z" fill="#253256"/><path d="M33.791 51.568l8.144-8.019v-5.45L33.79 46.08v5.487zm0-20.314l8.144-8.037v-5.138L33.79 26.06v5.193zm0 6.716l8.144-8.019v-5.138l-8.144 7.983v5.174zm-2.324-19.836l-1.08-1.046V4.37h-1.244v11.506l-1.062-1.065V4.372h-1.244v9.248l-1.08-1.065V4.371h-1.226v12.13l8.162 8.019V4.37h-1.226v13.763zm2.324 26.553l8.144-8.02V31.53l-8.144 7.983v5.175zm-9.26-1.138l8.162 8.019v-5.487L24.531 38.1v5.45zM40.71 12.555l-1.08 1.065V4.37h-1.226v10.46l-1.08 1.046V4.37h-1.226v12.7l-1.08 1.064V4.37h-1.226v20.15l8.144-8.02V4.372H40.71v8.184zM24.53 23.217l8.162 8.037v-5.193l-8.162-7.982v5.138zm0 6.734l8.162 8.02v-5.175l-8.162-7.983v5.138zm0 6.716l8.162 8.02v-5.175l-8.162-7.983v5.138zm48.551 4.24h-19.82c.422-.661.66-1.432.66-2.258a4.278 4.278 0 00-4.283-4.275c-2.36 0-4.264 1.927-4.264 4.275 0 .936.293 1.78.806 2.478a1.368 1.368 0 000 2.294 4.305 4.305 0 00-.806 2.477 4.262 4.262 0 004.264 4.275 4.278 4.278 0 004.283-4.275 4.12 4.12 0 00-.66-2.257h14.751v.899h-1.464v1.266h1.464v1.303h-1.464v2.404h1.464V48.43h2.16v1.083h1.445v-2.404h-1.445v-1.303h1.445V44.54h-1.445v-.9h2.91c.567 0 1.024-.476 1.024-1.045v-.642c0-.57-.476-1.047-1.025-1.047zm-21.228 4.99a2.205 2.205 0 01-4.41 0c0-.44.127-.862.365-1.21l.604-1.046a1.807 1.807 0 01-.622-1.377c0-.55.238-1.045.622-1.376l-.604-1.046a2.104 2.104 0 01-.366-1.21c0-1.212.989-2.203 2.196-2.203 1.208 0 2.215.99 2.215 2.202 0 .9-1.043 3.046-1.043 3.046v1.156c0 .019 1.043 2.166 1.043 3.065z" fill="#9AACDE"/><path d="M17.125 38.3v5.34c0 5.102 2.214 8.387 3.495 9.653.75.734 8.327 8.221 8.437 8.313 2.36 2.312 2.763 3.064 3.294 4.386v-5.91c0-5.266-2.654-7.303-4.026-8.642-3.203-3.12-5.326-5.175-7.064-6.9-3.258-3.285-4.136-6.24-4.136-6.24zm11.2 26.334c-3.184-3.138-5.326-5.175-7.046-6.9-3.276-3.285-4.136-5.505-4.136-5.505v4.605c0 5.102 2.306 8.35 3.477 9.69.75.734 8.345 8.184 8.437 8.276 2.36 2.312 2.763 3.413 3.294 4.716v-6.24c0-5.266-2.672-7.303-4.026-8.642z" fill="#fff"/><path d="M45.124 14.246c-.585 0-1.171.018-1.757.037v2.495c.586-.036 1.153-.036 1.757-.036 18.831 0 34.094 15.304 34.094 34.205 0 18.882-15.263 34.186-34.094 34.186-18.83 0-34.112-15.304-34.112-34.186 0-10.478 4.704-19.855 12.115-26.131v-3.193c-8.875 6.698-14.604 17.34-14.604 29.324 0 20.258 16.38 36.682 36.601 36.682 20.204 0 36.583-16.424 36.583-36.682 0-20.26-16.379-36.7-36.583-36.7z" fill="#fff"/><path d="M71 70.103a36.629 36.629 0 001.61-2.404v-4.918H71v7.322zm4.685-9.12c.238-.716.44-1.431.622-2.147H71v1.303h.805c1.41-.037 3.001-.055 3.88.844zm-35.333-2.331h-1.446v14.625h1.446V58.652z" fill="#fff"/><path d="M35.586 55.844h4.758c1.227 0 2.087.257 2.58.734.495.477.733 1.34.733 2.57v13.67c0 1.23-.238 2.092-.732 2.57-.75.751-2.141.751-3.294.751-.256-.018-.513-.018-.732-.018V82.6a34.4 34.4 0 001.445.257v-5.322c2.197 0 3.624-.752 4.301-2.257v7.927h.476c.293 0 .604 0 .897-.018v-23.8c0-1.266.256-2.147.732-2.643.475-.495 1.336-.752 2.543-.752 1.227 0 3.038-.184 3.972.752.475.496.695 1.395.695 2.643v7.01h-3.257V58.91h-1.41v24.02c.476-.055.934-.128 1.41-.22v-14.9h3.257v14.148a25.172 25.172 0 001.995-.643V68.36c0-1.468.348-2.569 1.83-3.064l-1.647-9.01h3.294l.549 9.835h.402l.55-9.835h3.476l-1.866 9.01c1.556.55 1.866 1.504 1.866 3.064v8.368a30.641 30.641 0 002.764-2.35V56.194h9.663c.073-.44.128-.863.183-1.321H54.436l.31 1.633c-.713-1.322-2.067-1.982-4.062-1.982h-1.409c-2.397 0-3.843.954-4.41 2.863-.513-2-2.032-2.992-4.539-2.992h-6.185v26.847c.475.165.951.33 1.427.477V55.844h.018zm29.995 10.331l-1.556-1.486 1.556-8.074v9.56z" fill="#fff"/><path d="M59.453 79.829c.494-.257.988-.514 1.482-.79V67.976h-1.482V79.83z" fill="#fff"/></svg>