<svg width="367" height="92" viewBox="0 0 367 92" fill="none" xmlns="http://www.w3.org/2000/svg">
<path d="M101.856 38.6875C103.96 38.6875 106.303 38.7607 108.334 40.1371C109.688 41.0363 111.28 42.8163 111.28 45.9908C111.28 49.4774 109.085 53.5878 102.991 53.5878H97.8663V63.1485H93.3828V38.6875H101.856V38.6875ZM102.039 50.0096C103.027 50.0096 104.454 50.0462 105.589 48.9819C106.376 48.2664 106.797 47.0551 106.797 46.0276C106.797 45.0734 106.413 43.9173 105.626 43.2384C104.839 42.5594 103.594 42.2289 102.203 42.2289H97.8663V50.0096H102.039V50.0096ZM115.417 46.8166C116.661 45.6421 118.509 44.6145 121.273 44.6145C124.054 44.6145 125.903 45.6421 127.147 46.8166C128.996 48.5598 129.947 51.2757 129.947 54.0467C129.947 56.8176 128.996 59.5334 127.147 61.2766C125.903 62.4511 124.054 63.497 121.273 63.497C118.509 63.497 116.661 62.4511 115.417 61.2766C113.568 59.5334 112.617 56.8176 112.617 54.0467C112.598 51.2575 113.568 48.5598 115.417 46.8166V46.8166ZM118.436 59.1847C118.821 59.6434 119.717 60.5058 121.273 60.5058C122.847 60.5058 123.725 59.6618 124.109 59.1847C124.402 58.8729 125.464 57.4415 125.464 54.0467C125.464 50.6519 124.402 49.2388 124.109 48.9085C123.725 48.4498 122.828 47.5874 121.273 47.5874C119.717 47.5874 118.821 48.4314 118.436 48.9085C118.162 49.2388 117.082 50.6519 117.082 54.0467C117.082 57.4231 118.162 58.8545 118.436 59.1847ZM144.13 51.6244C144.057 50.7069 143.709 49.6243 143.233 48.9453C142.794 48.303 141.952 47.5874 140.525 47.5874C139.134 47.5874 138.219 48.303 137.651 49.2572C136.755 50.7251 136.7 53.0007 136.7 54.0467C136.7 55.7165 136.938 57.7168 137.651 58.8544C138.109 59.57 139.042 60.4876 140.525 60.4876C141.586 60.4876 142.483 60.0655 143.16 59.1297C143.691 58.3773 144.057 57.3129 144.112 56.3771L147.881 56.836C147.662 58.5058 146.93 60.3774 145.612 61.5703C144.514 62.5611 142.794 63.4603 140.378 63.4603C137.688 63.4603 135.931 62.3961 134.906 61.4235C133.516 60.1022 132.198 57.7534 132.198 54.0467C132.198 50.5967 133.369 48.5232 134.303 47.4222C135.62 45.844 137.853 44.5779 140.488 44.5779C142.739 44.5779 144.587 45.3669 145.74 46.5782C146.911 47.7524 147.625 49.5325 147.881 51.129L144.13 51.6244V51.6244ZM161.772 51.6244C161.698 50.7069 161.351 49.6243 160.875 48.9453C160.454 48.303 159.594 47.5874 158.166 47.5874C156.776 47.5874 155.861 48.303 155.293 49.2572C154.415 50.7251 154.342 53.0007 154.342 54.0467C154.342 55.7165 154.598 57.7168 155.293 58.8544C155.751 59.57 156.684 60.4876 158.166 60.4876C159.228 60.4876 160.125 60.0655 160.802 59.1297C161.332 58.3773 161.698 57.3129 161.753 56.3771L165.523 56.836C165.322 58.5058 164.572 60.3774 163.254 61.5703C162.156 62.5611 160.454 63.4603 158.038 63.4603C155.33 63.4603 153.591 62.3961 152.567 61.4235C151.176 60.1022 149.858 57.7534 149.858 54.0467C149.858 50.5967 151.029 48.5232 151.963 47.4222C153.28 45.844 155.513 44.5779 158.148 44.5779C160.381 44.5779 162.229 45.3669 163.4 46.5782C164.572 47.7524 165.285 49.5325 165.541 51.129L161.772 51.6244V51.6244ZM184.556 57.8634C183.916 59.9921 182.634 61.24 181.573 61.9924C180.145 62.9464 178.297 63.497 176.339 63.497C173.886 63.497 171.398 62.4511 169.897 60.9279C168.506 59.515 167.481 57.0376 167.481 54.1199C167.481 50.4133 169.019 47.9543 170.684 46.5598C171.654 45.734 173.466 44.5963 176.192 44.5963C179.651 44.5963 181.847 46.1927 183.019 47.8443C184.262 49.5509 184.848 51.9364 184.848 54.0099V54.8357H171.983C171.983 55.0376 171.947 56.6891 172.587 58.0103C173.539 60.0105 175.296 60.5058 176.504 60.5058C177.455 60.5058 178.663 60.2124 179.669 59.1847C180.273 58.5424 180.53 57.9368 180.621 57.3681L184.556 57.8634V57.8634ZM180.365 52.1199C180.365 51.0922 180.109 49.9178 179.578 49.1288C178.901 48.1377 177.693 47.4588 176.375 47.4588C175.021 47.4588 173.85 48.1377 173.136 48.9819C172.569 49.6977 172.075 50.7986 172.075 52.1199H180.365V52.1199ZM202.398 44.9632V63.1485H198.264V48.0461H193.577C193.469 50.5051 193.395 51.4959 193.322 53.1841C193.212 55.0742 193.083 59.0563 191.474 61.24C190.577 62.4143 189.478 62.8732 188.692 63.0933C188.233 63.2401 187.74 63.2951 187.228 63.2951C186.879 63.2951 186.514 63.2585 186.165 63.1485V60.0105H186.514C187.044 59.9737 187.758 59.6985 188.215 59.3316C189.643 58.1937 189.771 55.6247 189.918 53.5878C190.101 50.9088 190.138 49.3122 190.155 46.89L190.191 44.9632H202.398V44.9632ZM210.872 51.4409H215.428C216.599 51.4409 218.869 51.5877 220.37 53.0741C221.724 54.3952 221.852 56.2486 221.852 57.2397C221.852 59.8453 220.79 61.1666 219.966 61.8456C219.674 62.0658 218.338 63.1301 215.777 63.1301H206.754V44.9632H210.872V51.4409V51.4409ZM210.872 60.139H214.111C214.898 60.139 215.74 60.1022 216.454 59.4966C216.874 59.0929 217.386 58.4324 217.386 57.2763C217.386 56.2854 217.094 55.4963 216.289 54.9641C215.575 54.5054 214.678 54.432 214.129 54.432H210.89V60.139H210.872V60.139ZM227.855 44.9632L231.204 50.6151L234.681 44.9632H238.45L233.143 53.1841L239.439 63.1301H234.608L230.49 56.2854L226.152 63.1301H222.383L228.569 53.698L223.023 44.9632H227.855V44.9632ZM242.623 46.8166C243.867 45.6421 245.717 44.6145 248.478 44.6145C251.26 44.6145 253.11 45.6421 254.354 46.8166C256.202 48.5598 257.154 51.2757 257.154 54.0467C257.154 56.8176 256.183 59.5334 254.354 61.2766C253.11 62.4511 251.26 63.497 248.478 63.497C245.717 63.497 243.867 62.4511 242.623 61.2766C240.775 59.5334 239.823 56.8176 239.823 54.0467C239.823 51.2575 240.775 48.5598 242.623 46.8166ZM245.643 59.1847C246.027 59.6434 246.924 60.5058 248.478 60.5058C250.053 60.5058 250.932 59.6618 251.334 59.1847C251.609 58.8729 252.688 57.4415 252.688 54.0467C252.688 50.6519 251.627 49.2388 251.334 48.9085C250.95 48.4498 250.053 47.5874 248.478 47.5874C246.924 47.5874 246.027 48.4314 245.643 48.9085C245.35 49.2388 244.289 50.6519 244.289 54.0467C244.289 57.4231 245.368 58.8545 245.643 59.1847ZM259.367 49.8811C259.899 47.679 261.288 46.4679 262.277 45.8624C262.881 45.4771 264.547 44.6145 267.401 44.6145C269.177 44.6145 270.988 44.9266 272.342 45.6789C274.337 46.78 274.831 48.3764 274.831 49.5325C274.831 50.7803 274.227 53.1659 271.135 53.5144V53.5878C272.196 53.7347 273.368 54.1934 274.082 54.9457C274.722 55.6247 275.216 56.7626 275.216 57.9736C275.216 59.7903 274.154 61.3868 272.799 62.2859C271.172 63.3503 268.92 63.497 267.256 63.497C265.571 63.497 263.028 63.3135 261.235 61.9006C260.246 61.1116 259.312 59.7537 259.039 58.0471L262.771 57.4047C262.918 57.9736 263.23 58.8361 263.65 59.3316C264.584 60.4142 266.028 60.5058 266.962 60.5058C267.896 60.5058 268.883 60.3958 269.671 59.8637C270.385 59.3682 270.733 58.6892 270.733 57.79C270.733 57.0378 270.586 56.4321 269.946 55.9C269.122 55.221 268.025 55.111 266.999 55.111H265.114V52.3217H266.999C267.713 52.3217 268.737 52.1749 269.306 51.8996C270.056 51.5143 270.476 50.872 270.476 49.8261C270.476 49.2572 270.256 48.7067 269.726 48.2846C268.902 47.6056 267.731 47.569 267.127 47.569C266.303 47.569 265.096 47.679 264.107 48.5232C263.687 48.8719 263.12 49.5509 262.936 50.6151L259.367 49.8811V49.8811ZM296.317 42.9631H284.549V48.3764H289.782C291.669 48.3764 293.48 48.5232 295.328 49.8077C297.141 51.0556 298.275 52.9089 298.275 55.5881C298.275 58.0837 297.341 59.9371 296.17 61.1114C294.395 62.8914 292.364 63.1485 290.241 63.1485H278.859V38.6875H296.317V42.9631ZM284.549 58.8544H289.142C290.002 58.8544 290.79 58.8177 291.595 57.9919C292.382 57.2029 292.491 56.3221 292.491 55.6431C292.491 54.8723 292.272 54.0833 291.595 53.4044C290.79 52.597 289.746 52.5052 288.997 52.5052H284.549V58.8544V58.8544ZM301.203 50.0096C301.77 47.5506 303.361 46.3027 304.332 45.734C305.741 44.9082 307.626 44.5963 309.987 44.5963C312.969 44.5963 315.99 44.9816 317.344 47.8075C318.058 49.2756 317.984 50.8354 317.984 52.1933V59.2213C317.984 60.6895 318.184 62.0474 318.515 63.1485H313.355C313.208 62.4327 313.098 61.4785 313.079 60.2674C312.402 61.4785 310.754 63.5154 307.004 63.5154C305.338 63.5154 303.618 63.0933 302.447 62.1208C301.312 61.1848 300.598 59.6985 300.598 58.0653C300.598 56.2486 301.385 54.0649 304.479 52.7804C306.473 51.9546 309.712 51.6794 311.158 51.606L312.859 51.5327V51.1472C312.859 50.6517 312.823 49.5875 312.329 49.0003C311.652 48.2112 310.298 48.1745 309.767 48.1745C309.035 48.1745 308.138 48.248 307.387 48.7067C306.93 48.9819 306.327 49.5691 306.106 50.5601L301.203 50.0096V50.0096ZM311.268 54.542C309.492 54.6889 307.718 54.8723 306.71 56.1018C306.437 56.4505 306.143 57.001 306.143 57.735C306.143 58.5242 306.528 59.0563 306.93 59.3316C307.424 59.7169 308.174 59.9003 308.888 59.9003C309.951 59.9003 311.195 59.4416 311.909 58.5792C312.019 58.469 312.859 57.4047 312.859 55.3312V54.377L311.268 54.542ZM327.391 44.9632V51.7712H333.118V44.9632H338.408V63.1301H333.118V55.4963H327.391V63.1301H322.102V44.9632H327.391V44.9632ZM347.832 44.9632V51.9546H349.26C350.796 51.9546 351.436 51.2023 351.822 50.3766C352.572 48.7801 352.536 47.5322 353.213 46.2845C353.743 45.2935 354.457 45.0366 354.914 44.9632H359.288C358.721 45.5687 358.226 46.2845 357.897 46.9266C357.33 48.1011 356.8 50.028 356.47 50.8538C356.05 51.9914 355.336 53.1291 353.523 53.2759V53.3494C354.494 53.4962 355.483 53.9915 356.231 55.0926C356.69 55.7715 357 56.6523 357.514 58.0471C358.008 59.4784 358.226 59.9737 358.685 61.0748C359.05 61.9006 359.252 62.3961 359.855 63.1485H354.877C354.092 62.8914 353.56 62.3593 352.919 60.5058C352.425 59.0929 352.352 58.5792 352.024 57.79L351.767 57.1479C351.236 55.7899 350.523 55.5147 349.423 55.5147H347.832V63.1485H342.544V44.9632H347.832V44.9632Z" fill="#253256"/>
<path d="M44.6323 90.1599C23.056 90.1599 5.50586 72.5803 5.50586 50.9452C5.50586 38.5221 11.1973 27.0898 21.1162 19.603L21.5188 19.2726V1.83984H43.9733V11.7307H44.6323C66.19 11.7307 83.7402 29.3285 83.7402 50.9636C83.7402 72.5803 66.19 90.1599 44.6323 90.1599Z" fill="#253256"/>
<path d="M33.3027 51.569L41.4465 43.5499V38.0999L33.3027 46.0823V51.569ZM33.3027 31.2552L41.4465 23.2178V18.0797L33.3027 26.062V31.2552ZM33.3027 37.9714L41.4465 29.9523V24.8143L33.3027 32.7966V37.9714ZM30.9787 18.1348L29.899 17.0888V4.37207H28.6547V15.8777L27.5931 14.8134V4.37207H26.3488V13.6206L25.2691 12.5563V4.37207H24.043V16.5016L32.2049 24.5207V4.37207H30.9787V18.1348ZM33.3027 44.6876L41.4465 36.6685V31.5305L33.3027 39.5128V44.6876ZM24.043 43.5499L32.2049 51.569V46.0823L24.043 38.0999V43.5499V43.5499ZM40.2203 12.5563L39.1406 13.6206V4.37207H37.9145V14.8318L36.8348 15.8777V4.37207H35.6086V17.0705L34.5289 18.1348V4.37207H33.3027V24.5207L41.4465 16.5016V4.37207H40.2203V12.5563V12.5563ZM24.043 23.2178L32.2049 31.2552V26.062L24.043 18.0797V23.2178V23.2178ZM24.043 29.9523L32.2049 37.9714V32.7966L24.043 24.8143V29.9523V29.9523ZM24.043 36.6685L32.2049 44.6876V39.5128L24.043 31.5305V36.6685V36.6685ZM72.594 40.9075H52.7747C53.1956 40.247 53.4334 39.4762 53.4334 38.6504C53.4334 36.2832 51.5118 34.3748 49.1511 34.3748C46.7904 34.3748 44.8871 36.3016 44.8871 38.6504C44.8871 39.5864 45.18 40.4304 45.6923 41.1278C45.3264 41.3662 45.07 41.7883 45.07 42.2838C45.07 42.7609 45.3264 43.183 45.6923 43.4215C45.1983 44.1189 44.8871 44.9813 44.8871 45.8989C44.8871 48.266 46.7904 50.1745 49.1511 50.1745C51.5118 50.1745 53.4334 48.266 53.4334 45.8989C53.4334 45.0731 53.1956 44.2839 52.7747 43.6418H67.5248V44.541H66.0608V45.8071H67.5248V47.11H66.0608V49.5137H67.5248V48.4311H69.6842V49.5137H71.13V47.11H69.6842V45.8071H71.13V44.541H69.6842V43.6418H72.594C73.1613 43.6418 73.6188 43.1646 73.6188 42.5957V41.9536C73.6188 41.3846 73.143 40.9075 72.594 40.9075V40.9075ZM51.3656 45.8989C51.3656 47.11 50.3772 48.1008 49.1511 48.1008C47.9433 48.1008 46.9551 47.11 46.9551 45.8989C46.9551 45.4584 47.0832 45.0363 47.321 44.6876L47.9249 43.6418C47.5407 43.3115 47.3027 42.816 47.3027 42.2654C47.3027 41.7149 47.5407 41.2196 47.9249 40.8891L47.321 39.8433C47.0832 39.4946 46.9551 39.0909 46.9551 38.6322C46.9551 37.4209 47.9433 36.4301 49.1511 36.4301C50.3589 36.4301 51.3656 37.4209 51.3656 38.6322C51.3656 39.5312 50.3224 41.6783 50.3224 41.6783V42.8344C50.3224 42.8528 51.3656 44.9997 51.3656 45.8989V45.8989Z" fill="#9AACDE"/>
<path d="M16.6309 38.3018V43.6418C16.6309 48.7432 18.8452 52.0278 20.1262 53.2941C20.8765 54.0281 28.4529 61.515 28.5628 61.6066C30.9235 63.9188 31.3261 64.6712 31.8568 65.9925V60.0837C31.8568 54.817 29.2032 52.7802 27.8306 51.4406C24.6282 48.3211 22.5053 46.2658 20.7668 44.5408C17.5093 41.2562 16.6309 38.3018 16.6309 38.3018V38.3018ZM27.8308 64.6345C24.6465 61.4966 22.5053 59.4597 20.7852 57.7347C17.5093 54.4501 16.6492 52.2296 16.6492 52.2296V56.8355C16.6492 61.9369 18.9551 65.1851 20.1264 66.5246C20.8765 67.2586 28.4712 74.7087 28.5628 74.8005C30.9235 77.1127 31.3261 78.2137 31.8568 79.5166V73.2774C31.8568 68.0109 29.185 65.9741 27.8308 64.6345V64.6345Z" fill="white"/>
<path d="M44.6321 14.2451C44.0466 14.2451 43.4608 14.2635 42.8753 14.2818V16.7775C43.4608 16.7408 44.0282 16.7408 44.6321 16.7408C63.4633 16.7408 78.7259 32.0449 78.7259 50.9457C78.7259 69.8281 63.4633 85.1323 44.6321 85.1323C25.801 85.1323 10.5201 69.8281 10.5201 50.9457C10.5201 40.4676 15.2233 31.0906 22.6351 24.8149V21.622C13.7593 28.3198 8.03125 38.9629 8.03125 50.9457C8.03125 71.2045 24.4101 87.6279 44.6321 87.6279C64.8358 87.6279 81.2147 71.2045 81.2147 50.9457C81.2147 30.6869 64.8358 14.2451 44.6321 14.2451Z" fill="white"/>
<path d="M70.5078 70.103C71.075 69.3322 71.6059 68.5248 72.1182 67.699V62.7813H70.5078V70.103ZM75.1928 60.9828C75.4306 60.2673 75.6319 59.5517 75.8148 58.8359H70.5078V60.1388H71.313C72.7221 60.102 74.3143 60.0838 75.1928 60.9828Z" fill="white"/>
<path d="M39.856 58.6523H38.4102V73.2774H39.856V58.6523V58.6523Z" fill="white"/>
<path d="M35.0962 55.8451H39.8542C41.0803 55.8451 41.9406 56.1019 42.4345 56.579C42.9287 57.0561 43.1667 57.9187 43.1667 59.1482V72.8191C43.1667 74.0485 42.9287 74.9111 42.4345 75.3883C41.6842 76.1404 40.2935 76.1404 39.1405 76.1404C38.8844 76.1222 38.6282 76.1222 38.4085 76.1222V82.5998C38.8844 82.6916 39.3602 82.7834 39.8542 82.8568V77.5352C42.0503 77.5352 43.4777 76.7828 44.1548 75.278V83.2053H44.6307C44.9235 83.2053 45.2346 83.2053 45.5274 83.1871V59.3867C45.5274 58.1206 45.7836 57.2398 46.2594 56.7443C46.7352 56.2488 47.5953 55.9919 48.8031 55.9919C50.0292 55.9919 51.8411 55.8084 52.7744 56.7443C53.2502 57.2398 53.4697 58.1388 53.4697 59.3867V66.3965H50.2124V58.9096H48.8031V82.9302C49.2789 82.875 49.7366 82.8016 50.2124 82.71V67.8095H53.4697V81.9576C54.1468 81.7742 54.8057 81.5539 55.4645 81.3153V68.36C55.4645 66.8921 55.8122 65.791 57.2945 65.2955L55.6475 56.2856H58.9416L59.4907 66.1213H59.8933L60.4423 56.2856H63.9193L62.0527 65.2955C63.6082 65.846 63.9193 66.8002 63.9193 68.36V76.7278C64.8892 75.9938 65.8042 75.223 66.6826 74.3788V56.1937H76.3453C76.4185 55.7534 76.4734 55.3313 76.5283 54.8726H53.9455L54.2567 56.5056C53.5429 55.1845 52.1887 54.5239 50.194 54.5239H48.7849C46.3875 54.5239 44.9417 55.4782 44.3745 57.3866C43.862 55.3863 42.3432 54.3955 39.836 54.3955H33.6504V81.2418C34.1262 81.4071 34.602 81.5721 35.0778 81.719V55.8451H35.0962V55.8451ZM65.0905 66.1763L63.535 64.6899L65.0905 56.6158V66.1763Z" fill="white"/>
<path d="M58.9609 79.8288C59.4551 79.5719 59.9491 79.3151 60.4433 79.0398V67.9746H58.9609V79.8288Z" fill="white"/>
</svg>
