<svg width="400" height="100" fill="none" xmlns="http://www.w3.org/2000/svg"><path d="M136 74.88C136 84.6 130.6 90 120.88 90H71.12C61.4 90 56 84.6 56 74.88V25.12C56 15.4 61.4 10 71.12 10h49.78c9.7 0 15.1 5.4 15.1 15.12v49.76z" fill="#9AACDE"/><path fill-rule="evenodd" clip-rule="evenodd" d="M107.439 46.1v-7.64l2.759-2.762v6.62l2.402 2.4 9.658-9.659 2.381 2.379c-.02-1.8-.38-7.02-4.8-11.36-4.76-4.598-9.92-2.52-11.68-.76l-9.64 9.64 2.461 2.461L96 42.438l-4.981-4.98L93.479 35l-9.64-9.64c-1.76-1.76-6.92-3.84-11.68.759-4.42 4.34-4.78 9.56-4.8 11.36l2.38-2.38 9.66 9.66 2.4-2.398v-6.62l2.76 2.758v7.64L88.439 50l-19.12 19.12 7.561 7.54L96 57.559l19.118 19.12 7.562-7.541-19.12-19.139 3.879-3.9zm41.902 7.24h14.42v4.54h-9.019v4.66h3c2.018 0 4.619.241 6.578 2.161.841.84 1.882 2.379 1.882 4.858 0 .749-.093 1.466-.272 2.136-.3 1.119-.845 2.102-1.61 2.864-.52.52-1.11.92-1.757 1.222a7.836 7.836 0 01-1.396.489c-1.176.298-2.488.39-3.886.39h-7.94V53.34zm7.521 18.98c.74 0 2.06-.06 2.898-.74.163-.14.44-.415.644-.853.148-.314.257-.713.257-1.207a2.851 2.851 0 00-.156-.964 2.435 2.435 0 00-.808-1.139l-.076-.057c-.839-.6-2.2-.62-2.759-.62h-2.141v5.601h2.141v-.02zm28.898-11.26h-5.039v1.76c-.973-1.322-2.266-1.898-3.409-2.132a7.43 7.43 0 00-1.493-.148c-2.158 0-4.058.78-5.419 2.14-1.439 1.44-2.42 3.68-2.42 6.3 0 2.06.639 4.1 2.28 5.84 1.721 1.82 3.6 2.38 5.841 2.38.66 0 1.492-.083 2.329-.44.808-.346 1.622-.949 2.291-1.98v1.88h5.039v-15.6zm-12.599 7.78c0-.771.193-1.396.454-1.89.214-.4.471-.715.705-.95.66-.66 1.66-1.12 2.741-1.1.919 0 2.039.34 2.798 1.08.14.132.269.275.387.43.133.179.25.372.351.575a4.16 4.16 0 01.424 1.855c0 1.34-.562 2.321-1.222 2.94a3.715 3.715 0 01-2.619 1.08c-1.2 0-2.28-.48-2.981-1.22-.44-.5-1.038-1.4-1.038-2.8zm15.639-7.78h5.039v5.42h5.642v-5.42h5.039v15.6h-5.039v-6.12h-5.642v6.12H188.8v-15.6zm23.779 0h-5.039v15.6h5.039v-6.92l5.321 6.92h6.501l-7.141-8.359 6.68-7.24h-6.26l-5.101 6.2v-6.2zm-55.02-37.72c2.021 0 4.261.28 6.12 1.92 2 1.74 2.28 4.06 2.28 5.66 0 2.94-1.12 4.581-2 5.5-1.859 1.881-4.299 2.06-5.94 2.06h-3.279v8.18h-5.38V23.34h8.199zm-2.84 10.74h1.921c.285 0 .649-.006 1.04-.061.627-.089 1.32-.302 1.86-.819.479-.48.88-1.299.88-2.3 0-.448-.072-.862-.201-1.223a2.622 2.622 0 00-.679-1.057c-.801-.759-1.961-.88-3.001-.88h-1.82v6.34zm29.421-3.02h-5.04v1.76a5.328 5.328 0 00-2.389-1.834c-.916-.36-1.825-.446-2.512-.446-2.159 0-4.058.78-5.419 2.14-1.439 1.44-2.42 3.68-2.42 6.3 0 1.332.267 2.656.9 3.896.346.678.8 1.33 1.38 1.945 1.721 1.819 3.6 2.378 5.841 2.378.658 0 1.484-.08 2.317-.434.812-.345 1.63-.947 2.302-1.986v1.882h5.04v-15.6zm-12.599 7.78c0-1.4.639-2.32 1.159-2.84.66-.66 1.68-1.12 2.741-1.1a4.335 4.335 0 011.363.229c.524.177 1.03.456 1.435.851.387.366.687.825.884 1.34a4.248 4.248 0 01.247 1.002c.01.084.016.17.02.257.007.086.011.172.011.26 0 1.341-.562 2.322-1.222 2.94a3.695 3.695 0 01-1.809.992l-.218.043-.203.025a3.47 3.47 0 01-.389.02 4.395 4.395 0 01-1.484-.257 3.858 3.858 0 01-1.497-.962c-.44-.5-1.038-1.4-1.038-2.8zm20.678-7.78v8.92l6.641-8.92h4.681v15.6H198.5V37.6l-6.64 9.06h-4.68v-15.6h5.039zm9.482-6.3c-.421 1.26-1.26 2.34-2.241 2.98-1.32.88-2.94.98-4.099.98-1.16 0-2.761-.1-4.1-.98a4.604 4.604 0 01-.707-.553 6.03 6.03 0 01-.37-.385 6.082 6.082 0 01-1.164-2.041l3.499-1.361c.14.699.482 1.26.901 1.6.46.38 1.04.62 1.92.62a4.1 4.1 0 00.596-.04l.105-.017.103-.02.138-.036.138-.04c.329-.11.6-.27.84-.468.42-.339.761-.9.901-1.6l3.54 1.362zm12.979 22.141v7.54h5.08V46.9h.2c3.54 0 5.499-1.462 6.4-2.342a7.126 7.126 0 001.305-1.755c.066-.124.13-.251.19-.383l.106-.242c.134-.323.251-.669.348-1.04a8.914 8.914 0 00.282-1.937c.006-.14.008-.28.008-.422a8.733 8.733 0 00-.401-2.679 7.333 7.333 0 00-1.108-2.164l-.074-.097-.128-.159a6.603 6.603 0 00-.989-.98c-1.539-1.221-3.859-1.881-5.919-1.881h-.24v-7.48h-5.039v7.48h-.241c-2.08 0-4.381.66-5.921 1.88-1.299 1.041-2.699 3-2.699 6.08 0 2.84 1.12 4.7 2.241 5.78.898.88 2.86 2.341 6.398 2.341h.201zm-1.022-11.914a4.83 4.83 0 011.263-.107v7.96c-1.281.04-2.482-.44-3.142-1.18-.6-.62-1.019-1.64-1.019-2.86 0-1.239.419-2.24 1.019-2.84.463-.475 1.141-.81 1.879-.973zm8.962 6.694c-.66.72-1.84 1.22-3.139 1.18v-7.96a4.41 4.41 0 012.321.485c.308.164.588.364.818.594.274.274.51.633.687 1.059a4.7 4.7 0 01.333 1.78c0 1.221-.419 2.241-1.02 2.862zm16.302 12.76V46.9h-.202c-1.139 0-2.113-.152-2.944-.386a8.658 8.658 0 01-1.231-.449 7.668 7.668 0 01-2.681-1.996 6.546 6.546 0 01-.385-.497 7.328 7.328 0 01-.781-1.442 8.333 8.333 0 01-.539-2.09 9.387 9.387 0 01-.078-1.26c0-3.08 1.4-5.04 2.7-6.08 1.539-1.221 3.84-1.881 5.921-1.881h.24v-7.48h5.039v7.48h.241c.639 0 1.303.063 1.961.187a10.356 10.356 0 011.836.516c.785.302 1.513.697 2.122 1.178 1.301 1.04 2.699 3 2.699 6.08 0 1.13-.177 2.1-.46 2.93a7.417 7.417 0 01-.973 1.905 7.18 7.18 0 01-.806.943c-.575.564-1.587 1.366-3.17 1.87a9.808 9.808 0 01-1.388.328 11.28 11.28 0 01-1.842.144h-.199v7.54h-5.08zm.24-19.56c-1.18-.06-2.422.338-3.141 1.078-.601.6-1.02 1.602-1.02 2.842 0 1.219.419 2.239 1.02 2.86.66.74 1.86 1.219 3.141 1.18v-7.96zm4.558 7.98c1.302.04 2.482-.46 3.142-1.18.318-.329.585-.77.766-1.295a4.79 4.79 0 00.253-1.567c0-1.219-.419-2.239-1.019-2.839-.741-.74-1.962-1.16-3.142-1.08v7.961zm28.359-11.8h-5.039v1.76c-1.441-1.96-3.581-2.28-4.901-2.28-2.159 0-4.058.778-5.419 2.14-1.439 1.438-2.42 3.68-2.42 6.299 0 1.311.259 2.615.87 3.838.349.699.814 1.37 1.41 2.003 1.721 1.819 3.6 2.378 5.841 2.378 1.299 0 3.258-.319 4.619-2.42v1.882h5.039v-15.6zm-12.598 7.779c0-.65.138-1.195.337-1.645.23-.522.543-.915.822-1.194.66-.66 1.68-1.12 2.741-1.1.919 0 2.039.339 2.798 1.079.74.7 1.162 1.74 1.162 2.86 0 1.34-.562 2.321-1.222 2.94a3.718 3.718 0 01-2.619 1.08c-1.201 0-2.28-.48-2.981-1.22a4.183 4.183 0 01-.662-1.014 4.238 4.238 0 01-.376-1.786zm20.678-7.78v8.92l6.641-8.92h4.681v15.6h-5.041V37.6l-6.641 9.06h-4.679v-15.6h5.039zm9.482-6.3a6.03 6.03 0 01-.828 1.61 5.662 5.662 0 01-.812.907 5.213 5.213 0 01-1.651.993 6.73 6.73 0 01-1.254.325 11.19 11.19 0 01-1.795.126c-1.16 0-2.761-.101-4.1-.981-.98-.621-1.821-1.72-2.241-2.98l3.499-1.36c.14.699.482 1.26.901 1.6.23.189.489.343.802.45.312.109.678.17 1.118.17.88 0 1.46-.24 1.92-.62a2.42 2.42 0 00.566-.681 3.11 3.11 0 00.335-.92l3.54 1.362zm6.959 6.34c-.84.32-1.92.88-2.58 1.3l1.96 3.38a6.36 6.36 0 011.681-1.02 4.897 4.897 0 012.06-.42c.839 0 1.339.18 1.579.281.362.162.562.387.664.6.072.155.097.303.097.42 0 .3-.14.758-.74 1.038a2.556 2.556 0 01-.611.173 7.769 7.769 0 01-1.27.109h-1.439v3.419h1.879c.561 0 1.4.1 1.821.28.198.086.362.195.485.332.163.181.255.412.255.708 0 .228-.045.526-.253.8a1.458 1.458 0 01-.448.38c-.499.28-1.26.38-1.819.38-.531 0-1.11-.084-1.633-.218a5.801 5.801 0 01-.787-.261c-.621-.282-1.361-.781-1.92-1.26l-2.14 3.32c.197.158.522.413.953.693a9.637 9.637 0 001.847.946c1.4.52 2.859.7 4.26.7 2.6 0 4.42-.38 5.74-1.679a4.624 4.624 0 001.073-1.636 4.619 4.619 0 00.286-1.625c0-.137-.004-.273-.017-.405-.008-.084-.016-.168-.029-.25l-.028-.173c-.128-.65-.426-1.225-.965-1.752-.22-.22-.941-.84-2.101-1.12a2.98 2.98 0 00.633-.321l.12-.08a4.174 4.174 0 00.567-.48c.761-.799.94-1.679.94-2.66 0-.298-.023-.592-.076-.878a3.58 3.58 0 00-1.084-1.982c-1.579-1.54-4.439-1.599-5.279-1.599-1.201 0-2.5.14-3.681.56zm29.24 8.64h-11.641c0 .29.039.615.115.944.144.62.422 1.258.827 1.715.199.222.421.396.654.53.162.095.331.17.499.23.5.18 1.008.22 1.425.22.279 0 .561-.02.833-.061.446-.07.863-.2 1.188-.4.059-.038.66-.419 1.079-1.299l4.762.481c-.701 2.2-2.101 3.36-3.002 3.92-1.499.9-3.178 1.159-4.938 1.159-2.342 0-4.402-.42-6.221-2.24-1.359-1.36-2.34-3.42-2.34-6.019 0-2.24.8-4.54 2.381-6.16a7.3 7.3 0 013.03-1.821c1.047-.329 2.075-.42 2.948-.42 1.742 0 4.26.321 6.201 2.34 1.861 1.962 2.2 4.4 2.2 6.34v.541zm-4.64-3.001c-.04-.14-.28-1.119-1.02-1.82a3.15 3.15 0 00-.714-.497 3.144 3.144 0 00-.563-.226 3.8 3.8 0 00-1.104-.157 4.01 4.01 0 00-1.129.152 3.314 3.314 0 00-1.431.868c-.38.422-.74.98-.88 1.68h6.841zm11.959-5.679h-5.039v15.6h5.039v-6.12h5.641v6.12h5.039v-15.6H338.8v5.42h-5.641v-5.42z" fill="#253256"/></svg>