<svg width="401" height="100" fill="none" xmlns="http://www.w3.org/2000/svg"><path d="M136.492 74.88c0 9.72-5.4 15.12-15.12 15.12h-49.76c-9.72 0-15.12-5.4-15.12-15.12V25.12c0-9.72 5.4-15.12 15.12-15.12h49.78c9.7 0 15.1 5.4 15.1 15.12v49.76z" fill="#9AACDE"/><path fill-rule="evenodd" clip-rule="evenodd" d="M107.932 46.1v-7.64l2.759-2.762v6.62l2.401 2.4 9.659-9.659 2.381 2.379c-.021-1.8-.381-7.02-4.801-11.36-4.759-4.598-9.92-2.52-11.68-.76l-9.64 9.64 2.461 2.461-4.98 5.019-4.98-4.98L93.971 35l-9.64-9.64c-1.76-1.76-6.92-3.84-11.68.759-4.42 4.34-4.78 9.56-4.8 11.36l2.38-2.38 9.659 9.66 2.401-2.398v-6.62l2.76 2.758v7.64L88.93 50 69.81 69.12l7.561 7.54 19.12-19.1 19.119 19.12 7.561-7.541L104.051 50l3.88-3.9zm41.901 7.24h14.421v4.54h-9.02v4.66h3c2.019 0 4.62.241 6.579 2.161.841.84 1.881 2.379 1.881 4.858 0 .749-.092 1.466-.271 2.136-.3 1.119-.845 2.102-1.61 2.864-.52.52-1.11.92-1.758 1.222a8.284 8.284 0 01-1.396.49c-1.176.297-2.488.39-3.886.39h-7.94V53.34zm7.521 18.98c.74 0 2.06-.06 2.899-.74.162-.14.44-.415.643-.853.148-.314.257-.713.257-1.207 0-.176-.014-.343-.039-.5a2.752 2.752 0 00-.117-.464 2.545 2.545 0 00-.296-.594 2.39 2.39 0 00-.512-.545l-.076-.057c-.839-.6-2.2-.62-2.759-.62h-2.14v5.601h2.14v-.02zm28.898-11.26h-5.039v1.76c-.972-1.322-2.266-1.898-3.409-2.132a7.428 7.428 0 00-1.492-.148c-2.159 0-4.059.78-5.42 2.14-1.439 1.44-2.42 3.68-2.42 6.3 0 2.06.64 4.1 2.28 5.84 1.721 1.82 3.6 2.38 5.841 2.38.66 0 1.493-.083 2.33-.44.808-.346 1.622-.949 2.29-1.98v1.88h5.039v-15.6zm-12.599 7.78c0-.771.194-1.396.455-1.89.214-.4.471-.715.705-.95a3.83 3.83 0 012.74-1.1c.919 0 2.04.34 2.799 1.08.139.132.269.275.386.43.134.179.251.372.352.575.275.553.423 1.19.423 1.855 0 1.34-.561 2.321-1.221 2.94a3.683 3.683 0 01-1.172.785 3.69 3.69 0 01-1.447.294c-1.201 0-2.28-.479-2.981-1.219-.44-.5-1.039-1.4-1.039-2.8zm15.64-7.78h5.039v5.42h5.641v-5.42h5.039v15.6h-5.039v-6.12h-5.641v6.12h-5.039v-15.6zm23.779 0h-5.04v15.6h5.04v-6.92l5.32 6.92h6.501l-7.14-8.359 6.68-7.24h-6.261l-5.1 6.2v-6.2zm-55.021-37.72c2.021 0 4.262.28 6.12 1.92 2.001 1.74 2.28 4.06 2.28 5.66 0 2.94-1.12 4.581-2 5.5-1.859 1.881-4.299 2.06-5.94 2.06h-3.279v8.18h-5.38V23.34h8.199zm-2.839 10.74h1.92c.286 0 .65-.006 1.04-.061.627-.089 1.32-.302 1.861-.819.479-.48.88-1.299.88-2.3 0-.448-.072-.862-.202-1.223a2.62 2.62 0 00-.678-1.057c-.802-.759-1.961-.88-3.002-.88h-1.819v6.34zm29.42-3.02h-5.039v1.76a5.333 5.333 0 00-2.389-1.834c-.917-.36-1.826-.446-2.512-.446-2.159 0-4.059.78-5.42 2.14-1.439 1.44-2.42 3.68-2.42 6.3 0 1.332.268 2.656.901 3.896.345.678.8 1.33 1.379 1.945 1.721 1.819 3.6 2.378 5.841 2.378.658 0 1.485-.08 2.317-.434.812-.345 1.631-.947 2.303-1.986v1.882h5.039v-15.6zm-12.599 7.78c0-1.4.64-2.32 1.16-2.84.66-.66 1.68-1.12 2.74-1.1a4.29 4.29 0 011.363.229c.525.177 1.03.456 1.435.851.387.366.687.825.885 1.34a4.248 4.248 0 01.246 1.002c.011.084.017.17.021.257.006.086.01.172.01.26 0 1.341-.561 2.322-1.221 2.94a3.71 3.71 0 01-1.809.992l-.218.043-.204.025c-.127.014-.257.02-.388.02a4.401 4.401 0 01-1.485-.257 3.847 3.847 0 01-1.496-.962c-.44-.5-1.039-1.4-1.039-2.8zm20.679-7.78v8.92l6.64-8.92h4.682v15.6h-5.041V37.6l-6.641 9.06h-4.679v-15.6h5.039zm9.482-6.3c-.422 1.26-1.261 2.34-2.241 2.98-1.32.88-2.94.98-4.1.98-1.159 0-2.761-.1-4.099-.98a4.62 4.62 0 01-.708-.553 6.318 6.318 0 01-.37-.385 6.097 6.097 0 01-1.163-2.041l3.499-1.361c.14.699.481 1.26.9 1.6.461.38 1.041.62 1.921.62.215 0 .413-.014.596-.04l.105-.017.102-.02.138-.036.138-.04c.329-.11.6-.27.841-.468.419-.339.761-.9.9-1.6l3.541 1.362zm12.979 22.141v7.54h5.08V46.9h.199c3.541 0 5.5-1.462 6.4-2.342a7.154 7.154 0 001.495-2.138l.107-.242c.134-.323.251-.669.347-1.04a8.812 8.812 0 00.282-1.937c.006-.14.008-.28.008-.422a8.733 8.733 0 00-.401-2.679 7.333 7.333 0 00-1.108-2.164l-.074-.097-.127-.159a6.65 6.65 0 00-.989-.98c-1.54-1.221-3.859-1.881-5.919-1.881h-.241v-7.48h-5.039v7.48h-.24c-2.081 0-4.381.66-5.921 1.88-1.3 1.041-2.7 3-2.7 6.08 0 2.84 1.121 4.7 2.241 5.78.899.88 2.86 2.341 6.398 2.341h.202zm-1.022-11.914c.411-.09.841-.127 1.262-.107v7.96c-1.281.04-2.481-.44-3.141-1.18-.601-.62-1.02-1.64-1.02-2.86 0-1.239.419-2.24 1.02-2.84.462-.475 1.141-.81 1.879-.973zm8.962 6.694c-.66.72-1.84 1.22-3.14 1.18v-7.96a4.408 4.408 0 012.321.485c.309.164.588.364.819.594.273.274.51.633.686 1.059a4.7 4.7 0 01.333 1.78c0 1.221-.419 2.241-1.019 2.862zm16.301 12.76V46.9h-.201c-1.139 0-2.114-.152-2.945-.386a8.658 8.658 0 01-1.231-.449 7.661 7.661 0 01-2.681-1.996 6.292 6.292 0 01-.384-.497 7.33 7.33 0 01-.782-1.442 8.334 8.334 0 01-.538-2.09 8.93 8.93 0 01-.078-1.26c0-3.08 1.4-5.04 2.699-6.08 1.54-1.221 3.84-1.881 5.921-1.881h.241v-7.48h5.039v7.48h.24a10.71 10.71 0 012.952.421c.288.082.57.177.845.282.786.302 1.514.697 2.122 1.178 1.302 1.04 2.7 3 2.7 6.08 0 1.13-.177 2.1-.461 2.93a7.416 7.416 0 01-.972 1.905 7.256 7.256 0 01-.806.943c-.576.564-1.587 1.366-3.171 1.87a9.826 9.826 0 01-1.387.328 11.28 11.28 0 01-1.842.144h-.2v7.54h-5.08zm.241-19.56c-1.181-.06-2.422.338-3.142 1.078-.6.6-1.02 1.602-1.02 2.842 0 1.219.42 2.239 1.02 2.86.66.74 1.861 1.219 3.142 1.18v-7.96zm4.558 7.98c1.301.04 2.481-.46 3.141-1.18.319-.329.586-.77.767-1.295.16-.465.253-.993.253-1.567 0-1.219-.42-2.239-1.02-2.839-.74-.74-1.961-1.16-3.141-1.08v7.961zm28.359-11.8h-5.039v1.76c-1.441-1.96-3.582-2.28-4.901-2.28-2.159 0-4.059.778-5.42 2.14-1.439 1.438-2.42 3.68-2.42 6.299 0 1.311.259 2.615.87 3.838.349.699.814 1.37 1.41 2.003 1.721 1.819 3.6 2.378 5.841 2.378 1.3 0 3.259-.319 4.62-2.42v1.882h5.039v-15.6zm-12.599 7.779c0-.65.138-1.195.337-1.645.231-.522.543-.915.823-1.194a3.864 3.864 0 012.74-1.1c.919 0 2.04.339 2.798 1.079.741.7 1.162 1.74 1.162 2.86 0 1.34-.561 2.321-1.221 2.94a3.72 3.72 0 01-2.619 1.08c-1.201 0-2.28-.48-2.982-1.22a4.213 4.213 0 01-.662-1.014 4.254 4.254 0 01-.376-1.786zm20.679-7.78v8.92l6.64-8.92h4.682v15.6h-5.041V37.6l-6.641 9.06h-4.679v-15.6h5.039zm9.482-6.3a6.032 6.032 0 01-.829 1.61 5.662 5.662 0 01-.812.907 5.195 5.195 0 01-1.651.993 6.71 6.71 0 01-1.254.325 11.19 11.19 0 01-1.795.126c-1.159 0-2.761-.101-4.099-.981-.981-.621-1.822-1.72-2.241-2.98l3.499-1.36c.14.699.481 1.26.9 1.6.231.189.49.343.802.45.313.109.679.17 1.119.17.88 0 1.459-.24 1.92-.62a2.4 2.4 0 00.565-.681 3.11 3.11 0 00.335-.92l3.541 1.362zm6.959 6.34c-.841.32-1.92.88-2.58 1.3l1.959 3.38a6.382 6.382 0 011.682-1.02 4.894 4.894 0 012.06-.42c.839 0 1.338.18 1.579.281.362.162.561.387.664.6a1 1 0 01.096.42c0 .3-.139.758-.74 1.038a2.547 2.547 0 01-.61.173 7.789 7.789 0 01-1.271.109h-1.439v3.419h1.879c.561 0 1.4.1 1.822.28.197.086.361.195.485.332.162.181.255.412.255.708 0 .228-.045.526-.253.8a1.482 1.482 0 01-.448.38c-.5.28-1.261.38-1.82.38a6.79 6.79 0 01-1.632-.218 5.817 5.817 0 01-.788-.261c-.621-.282-1.361-.781-1.92-1.26l-2.14 3.32a11.29 11.29 0 001.62 1.092c.354.193.75.382 1.18.547 1.4.52 2.86.7 4.26.7 2.601 0 4.42-.38 5.74-1.679a4.61 4.61 0 001.073-1.636 4.597 4.597 0 00.286-1.625c0-.137-.004-.273-.016-.405-.009-.084-.017-.168-.029-.25l-.029-.173c-.127-.65-.426-1.225-.964-1.752-.22-.22-.942-.84-2.101-1.12a3.232 3.232 0 00.633-.32l.119-.081a4.196 4.196 0 00.568-.48c.76-.799.939-1.679.939-2.66 0-.298-.022-.592-.076-.878a3.59 3.59 0 00-1.083-1.982c-1.579-1.54-4.439-1.599-5.28-1.599-1.201 0-2.5.14-3.68.56zm29.239 8.64h-11.64c0 .29.039.615.115.944.144.62.421 1.258.826 1.715.2.222.422.396.654.53.162.095.331.17.5.23.499.18 1.007.22 1.424.22.28 0 .562-.02.833-.061.446-.07.863-.2 1.188-.4.06-.038.66-.419 1.08-1.299l4.761.481c-.701 2.2-2.101 3.36-3.001 3.92-1.499.9-3.179 1.159-4.939 1.159-2.342 0-4.402-.42-6.221-2.24-1.359-1.36-2.34-3.42-2.34-6.019 0-2.24.8-4.54 2.381-6.16a7.302 7.302 0 013.031-1.821c1.046-.329 2.074-.42 2.948-.42 1.741 0 4.26.321 6.2 2.34 1.861 1.962 2.2 4.4 2.2 6.34v.541zm-4.64-3.001c-.039-.14-.28-1.119-1.02-1.82a3.144 3.144 0 00-.713-.497 3.205 3.205 0 00-.563-.226 3.811 3.811 0 00-1.105-.157c-.433 0-.805.058-1.128.152a3.308 3.308 0 00-1.431.868c-.38.422-.74.98-.88 1.68h6.84zm11.959-5.679h-5.039v15.6h5.039v-6.12h5.642v6.12h5.039v-15.6h-5.039v5.42h-5.642v-5.42z" fill="#253256"/></svg>