<svg width="356" height="89" fill="none" xmlns="http://www.w3.org/2000/svg"><path d="M193.886 11.453l-32.589 4.228v9.576l32.589-2.888V11.453z" fill="#9AACDE"/><path fill-rule="evenodd" clip-rule="evenodd" d="M187.724 33.398l-26.42-17.709v9.554l8.238 5.541 1.62.94c-2.959.035-4.376.631-5.8 1.485-4.068 2.435-6.18 6.718-6.18 13.038 0 10.65 5.92 15.691 17.196 15.691 11.277 0 17.226-5.042 17.226-15.69 0-6.164-2.013-10.379-5.88-12.85zm-11.346 20.754c-5.59 0-7.35-2.021-7.35-7.823 0-5.802 1.747-7.823 7.35-7.823 5.604 0 7.321 1.982 7.321 7.823 0 5.84-1.687 7.823-7.321 7.823zM94.32 46.329c0 5.812 1.746 7.823 7.35 7.823 5.603 0 7.32-2.021 7.32-7.823 0-5.802-1.691-7.823-7.32-7.823-5.63 0-7.35 1.982-7.35 7.823zm-9.846-.085c0-10.649 5.959-15.522 17.196-15.522 11.236 0 17.222 4.873 17.222 15.522 0 10.649-5.92 15.692-17.222 15.692-11.303 0-17.196-5.043-17.196-15.692zM56.8 35.292c1.072-1.35 5.397-4.61 10.717-4.61 8.856 0 13.74 4.74 13.74 15.507 0 10.765-4.89 15.55-13.77 15.55-5.35 0-9.645-3.2-10.746-4.579v14.23h-9.383V31.38H56.8v3.912zm.006 10.873c0 5.806 1.76 7.823 7.35 7.823v-.013c5.63 0 7.317-1.975 7.317-7.81 0-5.834-1.714-7.822-7.317-7.822s-7.35 2.017-7.35 7.822zm201.357-14.772v10.865h-12.457V31.393h-9.441v29.401h9.441V49.78h12.457v11.014h9.445v-29.4h-9.445zM210.622 61.74c-8.886 0-13.769-4.796-13.769-15.551 0-10.738 4.88-15.506 13.736-15.506 5.317 0 9.642 3.26 10.721 4.59V31.36h9.441v29.436h-9.386V57.16c-1.101 1.379-5.396 4.58-10.743 4.58zm3.331-23.417c-5.633 0-7.32 1.982-7.32 7.823-.004 5.812 1.72 7.823 7.32 7.823 5.601 0 7.346-1.988 7.346-7.823 0-5.834-1.712-7.823-7.346-7.823zM146.288 49.93c-.737 3.074-2.71 4.221-6.985 4.221-5.59 0-7.347-2.02-7.347-7.823 0-5.802 1.757-7.822 7.347-7.822 4.275 0 6.248 1.144 6.988 4.237l9.846-.74c-1.47-7.692-7.235-11.268-16.834-11.268-11.237 0-17.192 4.873-17.192 15.522 0 10.649 5.919 15.691 17.192 15.691 9.593 0 15.298-3.65 16.804-11.268l-9.819-.75zm146.34-4.576l14.943 15.437h-12.138l-13.016-13.536V60.79h-9.273V31.393h9.273v12.771l12.671-12.77h11.681l-14.141 13.96z" fill="#253256"/></svg>