<svg width="325" height="82" fill="none" xmlns="http://www.w3.org/2000/svg"><path d="M146.689 31.609l6.159-4.539h-20.423v26.907h20.423V49.44H138.26v-6.81h12.319v-4.538H138.26v-6.484h8.429zm-25.449 0l6.16-4.539h-23.341v26.907h12.157c6.807 0 10.698-3.08 10.698-8.428 0-5.187-3.566-7.943-10.05-7.943h-7.132V31.61h11.508zm-5.186 10.374c3.728 0 5.349 1.297 5.349 3.728s-1.783 3.728-5.349 3.728h-6.16v-7.456h6.16zM169.22 27.07h-11.023v26.907h5.836V46.36h5.349c7.132 0 11.508-3.728 11.508-9.725 0-5.998-4.538-9.564-11.67-9.564zm0 14.75h-5.187V31.448h5.187c3.728 0 5.835 1.783 5.835 5.187-.162 3.404-2.107 5.187-5.835 5.187zm-75.049 6.322c-1.62.81-3.242 1.297-5.025 1.297-5.187 0-9.077-3.728-9.077-8.915 0-5.187 3.728-8.915 9.077-8.915 1.945 0 3.728.648 5.35 1.62l4.214-3.079-.325-.324c-2.43-2.107-5.673-3.242-9.4-3.242-4.053 0-7.62 1.297-10.375 3.89-2.593 2.594-4.214 6.16-4.052 9.888 0 3.728 1.459 7.294 4.052 10.05 2.756 2.593 6.484 4.052 10.212 3.89 4.215 0 7.78-1.46 10.374-4.053l-3.728-2.755-1.297.648zm174.897-10.05h-12.481V27.07h-5.835v26.907h5.835V42.956h12.481v11.023h5.836V27.07h-5.836v11.023zM229.68 27.07l-11.671 26.907h5.836l2.269-5.348h12.319l2.269 5.349h6.16L235.515 27.07h-5.835zm-1.621 17.02l4.539-10.86 4.214 10.86h-8.753zm67.917-4.052l10.536-12.968h-6.646l-8.753 11.509h-3.242V27.07h-5.835v26.907h5.835v-10.86h3.728l8.915 10.86h7.456l-11.994-13.94zm-90.124-2.432h-7.132V31.61h15.237v-4.54h-21.072v26.907h12.157c6.808 0 10.698-3.08 10.698-8.428.162-5.187-3.404-7.943-9.888-7.943zm-.972 11.995h-6.16v-7.456h6.16c3.728 0 5.349 1.296 5.349 3.728.162 2.431-1.783 3.728-5.349 3.728zM55.895 26.553a22.584 22.584 0 012.654 4.463L38.371 46.091l-8.434-5.357v-6.446l8.434 5.358 17.524-13.093z" fill="#253256"/><path d="M21.329 40.278c0-.29.007-.576.02-.862l-5.11-.254a22.652 22.652 0 001.655 9.71A22.41 22.41 0 0022.7 56.15l3.626-3.672a17.216 17.216 0 01-3.7-5.595 17.404 17.404 0 01-1.296-6.605zM38.36 23.015c.285 0 .569.01.85.025l.256-5.181a23.051 23.051 0 00-1.106-.027 21.84 21.84 0 00-8.48 1.703 22.075 22.075 0 00-7.185 4.871l3.625 3.674a16.96 16.96 0 015.521-3.75 16.778 16.778 0 016.519-1.315zm-.002 34.529c-.285 0-.569 0-.852-.023l-.256 5.18a21.823 21.823 0 009.583-1.677 22.062 22.062 0 007.181-4.871l-3.618-3.672a16.971 16.971 0 01-5.52 3.748 16.784 16.784 0 01-6.518 1.315z" fill="#9AACDE"/><path d="M47.969 26.028l4.307-3.217a21.87 21.87 0 00-13.917-4.98v5.184a16.792 16.792 0 019.61 3.013zm12.548 14.251a22.879 22.879 0 00-.348-4.023L55.4 39.817v.462a17.417 17.417 0 01-1.465 7.002 17.21 17.21 0 01-4.147 5.793l3.44 3.852a22.383 22.383 0 005.39-7.538 22.644 22.644 0 001.898-9.11zM38.364 57.545c-2.38 0-4.734-.505-6.91-1.485a17.011 17.011 0 01-5.717-4.203l-3.8 3.484a22.106 22.106 0 007.439 5.463 21.841 21.841 0 008.988 1.925v-5.184zM26.94 27.483l-3.437-3.852a22.38 22.38 0 00-5.392 7.538 22.646 22.646 0 00-1.9 9.11h5.118a17.418 17.418 0 011.464-7.003 17.214 17.214 0 014.147-5.793z" fill="#9AACDE"/></svg>