<svg width="325" height="82" fill="none" xmlns="http://www.w3.org/2000/svg"><path d="M146.693 31.609l6.159-4.539h-20.423v26.907h20.423V49.44h-14.588v-6.81h12.319v-4.538h-12.319v-6.484h8.429zm-25.449 0l6.16-4.539h-23.341v26.907h12.157c6.807 0 10.698-3.08 10.698-8.428 0-5.187-3.566-7.943-10.05-7.943h-7.132V31.61h11.508zm-5.187 10.374c3.729 0 5.349 1.297 5.349 3.728s-1.783 3.728-5.349 3.728h-6.159v-7.456h6.159zm53.167-14.913h-11.023v26.907h5.836V46.36h5.349c7.132 0 11.508-3.728 11.508-9.725 0-5.998-4.538-9.564-11.67-9.564zm0 14.75h-5.187V31.448h5.187c3.728 0 5.835 1.783 5.835 5.187-.162 3.404-2.107 5.187-5.835 5.187zm-75.049 6.322c-1.62.81-3.242 1.297-5.025 1.297-5.187 0-9.077-3.728-9.077-8.915 0-5.187 3.728-8.915 9.077-8.915 1.945 0 3.728.648 5.35 1.62l4.214-3.079-.325-.324c-2.431-2.107-5.673-3.242-9.4-3.242-4.053 0-7.62 1.297-10.375 3.89-2.593 2.594-4.214 6.16-4.052 9.888 0 3.728 1.459 7.294 4.052 10.05 2.756 2.593 6.484 4.052 10.212 3.89 4.214 0 7.78-1.46 10.374-4.053l-3.728-2.755-1.297.648zm174.897-10.05h-12.481V27.07h-5.835v26.907h5.835V42.956h12.481v11.023h5.836V27.07h-5.836v11.023zM229.684 27.07l-11.671 26.907h5.836l2.269-5.348h12.319l2.269 5.349h6.16L235.519 27.07h-5.835zm-1.621 17.02l4.539-10.86 4.214 10.86h-8.753zm67.917-4.052l10.535-12.968h-6.645l-8.753 11.509h-3.242V27.07h-5.835v26.907h5.835v-10.86h3.728l8.915 10.86h7.456l-11.994-13.94zm-90.124-2.432h-7.132V31.61h15.237v-4.54h-21.072v26.907h12.157c6.808 0 10.698-3.08 10.698-8.428.162-5.187-3.404-7.943-9.888-7.943zm-.972 11.995h-6.16v-7.456h6.16c3.728 0 5.349 1.296 5.349 3.728.162 2.431-1.783 3.728-5.349 3.728zM55.891 26.553a22.58 22.58 0 012.655 4.463L38.367 46.093l-8.433-5.358v-6.446l8.433 5.358 17.524-13.093z" fill="#253256"/><path d="M21.327 40.28c0-.29.007-.578.02-.863l-5.11-.254a22.651 22.651 0 001.655 9.71 22.408 22.408 0 004.806 7.278l3.625-3.672a17.217 17.217 0 01-3.7-5.595 17.403 17.403 0 01-1.296-6.605zm17.035-17.265c.285 0 .569.01.85.025l.256-5.181a23.054 23.054 0 00-1.106-.027 21.84 21.84 0 00-8.48 1.703 22.075 22.075 0 00-7.185 4.871l3.626 3.674a16.96 16.96 0 015.52-3.75 16.778 16.778 0 016.519-1.315zm0 34.529c-.285 0-.569 0-.852-.023l-.256 5.18a21.823 21.823 0 009.583-1.677 22.062 22.062 0 007.18-4.871L50.4 52.48a16.971 16.971 0 01-5.52 3.748 16.784 16.784 0 01-6.518 1.315z" fill="#9AACDE"/><path d="M47.965 26.028l4.307-3.218a21.87 21.87 0 00-13.916-4.98v5.185a16.792 16.792 0 019.609 3.013zm12.55 14.251a22.889 22.889 0 00-.348-4.023l-4.768 3.561v.462a17.416 17.416 0 01-1.465 7.002 17.21 17.21 0 01-4.147 5.793l3.44 3.852a22.383 22.383 0 005.39-7.538 22.647 22.647 0 001.898-9.11zM38.362 57.545c-2.38 0-4.734-.505-6.91-1.485a17.01 17.01 0 01-5.717-4.203l-3.8 3.484a22.107 22.107 0 007.439 5.463 21.842 21.842 0 008.988 1.925v-5.184zM26.939 27.484L23.5 23.632a22.381 22.381 0 00-5.392 7.538 22.647 22.647 0 00-1.9 9.11h5.118a17.418 17.418 0 011.465-7.003 17.212 17.212 0 014.147-5.793z" fill="#9AACDE"/></svg>