<svg width="217" height="78" fill="none" xmlns="http://www.w3.org/2000/svg"><g clip-path="url(#clip0_24_2450)"><path d="M108.03 36.052c-1.491-.578-3.44-.752-5.561-.752H90.657v-3.702h20.297v-6.364h-28.61v27.537h19.379c2.695 0 4.701-.231 6.192-.81 3.154-1.215 5.275-4.165 5.275-8.041 0-3.934-2.007-6.653-5.16-7.868zm-4.128 9.545c-.459.174-1.089.232-1.892.232H90.657v-4.397h11.353c.917 0 1.662.058 2.236.347.688.347 1.032.984 1.032 1.793 0 .81-.401 1.678-1.376 2.025zm32.597-20.363h-12.155l-11.18 27.537h9.403l1.548-3.992h12.614l1.605 3.992h9.346l-11.181-27.537zm-10.32 17.47l3.957-11.106h.63l3.956 11.107h-8.543zm32.205-.172v10.24h-8.314V25.233h8.314V35.3h13.359V25.234h8.313v27.537h-8.313v-10.24h-13.359zm34.828-.174v10.413h-8.314V25.234h8.314V35.59h2.293l10.034-10.356h10.435l-13.302 13.19 13.818 14.347h-11.066l-9.919-10.413h-2.293z" fill="#253256"/><path d="M.492 9.176H66.43V40.34c0 8.578-4.535 16.504-11.897 20.793L33.461 73.411 12.389 61.134C5.027 56.845.492 48.92.492 40.341V9.176z" fill="#9AACDE"/><path fill-rule="evenodd" clip-rule="evenodd" d="M18.68 25.234v10.342c1.401-1.597 3.95-2.678 6.863-2.678h3.166V44.92c0 3.199-.861 6.33-2.139 7.87h13.772c-1.275-1.541-2.134-4.669-2.134-7.863V32.898h3.166c2.914 0 5.462 1.08 6.864 2.678V25.234H18.68z" fill="#253256"/></g><defs><clipPath id="clip0_24_2450"><path fill="#fff" transform="translate(.492)" d="M0 0h216v78H0z"/></clipPath></defs></svg>