<svg width="355" height="93" fill="none" xmlns="http://www.w3.org/2000/svg"><path d="M46.31 16.759c-16.475 0-29.792 13.317-29.792 29.793 0 16.475 13.317 29.793 29.793 29.793 16.475 0 29.793-13.318 29.793-29.793 0-16.476-13.318-29.793-29.793-29.793zm-4.118 42.424l-2.197 6.453c-8.238-2.746-13.73-10.572-13.73-19.359 0-8.787 5.492-16.475 13.867-19.358l2.197 6.452c-5.492 1.785-9.061 7.003-9.061 12.769-.275 6.041 3.432 11.258 8.924 13.043zm10.16 6.59l-2.06-6.59c5.63-1.785 9.336-7.002 9.336-12.906 0-5.903-3.707-10.983-9.199-12.768l2.197-6.59C61.001 29.665 66.63 37.49 66.63 46.277c0 9.062-5.766 16.888-14.278 19.496z" fill="#9AACDE"/><path d="M319.115 51.907l3.295 3.982c-3.432 3.57-7.688 4.53-11.121 4.53-3.295 0-5.629-.549-7.688-1.51-4.394-2.197-6.59-6.59-6.59-11.945 0-8.1 5.492-14.141 13.592-14.141 9.061 0 13.455 6.727 12.768 15.514h-20.594c.137 2.197 1.373 4.256 3.158 5.355 1.51.96 3.295 1.373 5.629 1.373 2.609 0 5.217-.824 7.551-3.158zm-16.201-8.375h14.554c-.412-3.158-3.021-5.904-7.14-5.904-4.256 0-6.864 3.02-7.414 5.904zM164.658 59.595h7.414l-11.67-13.592 11.533-12.768h-7.277l-8.787 10.16h-2.609v-10.16h-5.629v26.223h5.629V49.024h2.609l8.787 10.571zm24.164-21.555c-4.805 0-7.963 3.707-7.963 8.375s3.158 8.375 7.963 8.375 7.826-3.57 7.826-8.375c.137-4.53-2.883-8.375-7.826-8.375zm.961-5.355c7.414 0 12.906 5.767 12.906 13.73 0 7.826-5.355 13.867-12.906 13.867-3.57 0-6.453-1.236-8.512-3.432v13.73h-5.767V33.371h5.629v3.158c2.197-2.609 5.08-3.845 8.65-3.845zm74.826.687h-23.478v5.217h8.925v21.006h5.766V38.59h8.924v-5.217h-.137zm-120.957 0h-23.615v5.217h8.924v21.006h5.767V38.59h8.924v-5.217zm-30.48 13.18c0-4.942-3.432-8.512-8.238-8.512-4.668 0-8.237 3.57-8.237 8.512 0 4.943 3.432 8.513 8.237 8.513 4.668 0 8.238-3.57 8.238-8.513zm-22.379 0c0-7.825 6.041-13.73 14.141-13.73 7.964 0 14.142 5.904 14.142 13.73 0 7.826-6.041 13.867-14.142 13.867-7.963-.137-14.141-6.04-14.141-13.867zm201.687-13.18v26.223h-5.629V42.708l-13.73 16.887h-4.53V33.372h5.629v16.887l13.729-16.887h4.531zm-55.33 26.223h-5.629V33.372h5.629v26.223zm-14.553-8.924c0-2.334-1.648-3.981-3.845-3.981h-5.766v8.1h5.766c2.197 0 3.845-1.785 3.845-4.119zm5.629 0c0 5.218-3.845 8.924-9.336 8.924h-11.533V33.372h5.629v8.512h6.453c5.492 0 8.787 3.57 8.787 8.787z" fill="#253256"/></svg>