<svg width="216" height="78" fill="none" xmlns="http://www.w3.org/2000/svg"><path d="M107.54 36.053c-1.491-.578-3.44-.752-5.562-.752H90.167V31.6h20.297v-6.364h-28.61v27.537h19.379c2.695 0 4.701-.231 6.192-.81 3.154-1.215 5.275-4.165 5.275-8.041 0-3.934-2.007-6.653-5.16-7.868zm-4.129 9.545c-.458.174-1.089.232-1.892.232H90.167v-4.397h11.352c.918 0 1.663.058 2.237.347.687.347 1.032.984 1.032 1.793 0 .81-.402 1.678-1.377 2.025zm32.598-20.363h-12.155l-11.18 27.537h9.403l1.548-3.992h12.614l1.605 3.992h9.346l-11.181-27.537zm-10.32 17.47l3.957-11.106h.63l3.956 11.107h-8.543zm32.202-.172v10.24h-8.313V25.234h8.313V35.3h13.359V25.235h8.314v27.537h-8.314v-10.24h-13.359zm34.831-.173v10.412h-8.314V25.235h8.314v10.356h2.293l10.034-10.356h10.434l-13.301 13.19L216 52.772h-11.066l-9.919-10.413h-2.293z" fill="#253256"/><path d="M0 9.177h65.937v31.165c0 8.578-4.535 16.504-11.897 20.793L32.969 73.412 11.897 61.135C4.535 56.846 0 48.92 0 40.342V9.177z" fill="#9AACDE"/><path fill-rule="evenodd" clip-rule="evenodd" d="M18.19 25.235v10.342c1.401-1.597 3.95-2.678 6.863-2.678h3.166V44.92c0 3.199-.861 6.33-2.14 7.87h13.773c-1.275-1.541-2.134-4.669-2.134-7.863V32.899h3.166c2.914 0 5.462 1.08 6.863 2.678V25.235H18.19z" fill="#253256"/></svg>