<svg width="185" height="40" fill="none" xmlns="http://www.w3.org/2000/svg"><path fill-rule="evenodd" clip-rule="evenodd" d="M20.563 6.443l11.646 6.725v13.447L20.563 33.34 8.916 26.615V13.168l11.647-6.725zm0 3.016l9.035 5.217v10.432l-9.035 5.217-9.036-5.217V14.676l9.036-5.217z" fill="#fff"/><path fill-rule="evenodd" clip-rule="evenodd" d="M5.888 14.435v13.928l14.672 8.472 14.672-8.472V14.435l2.554 1.475v13.928L20.56 39.785 3.332 29.838V15.91l2.556-1.475z" fill="#fff"/><path fill-rule="evenodd" clip-rule="evenodd" d="M20.564 0l20.564 11.872-1.277 2.212L20.564 2.95 1.277 14.084 0 11.872 20.564 0z" fill="#F4A062"/><path d="M17.155 23.76h2.198v-5.77c0-.283.01-.578.025-.887l-1.294 1.076a.857.857 0 01-.252.146.726.726 0 01-.243.043.722.722 0 01-.364-.09.783.783 0 01-.24-.193l-.768-1.02 3.562-2.99h2.009v9.685h1.884v1.76h-6.515v-1.76h-.002z" fill="#F4A062"/><path d="M52.395 17.193v-3.854l.82-.837 3.888 4.69h3.346l-5.315-6.396 4.987-5.085h-3.312l-4.414 4.478V5.711h-2.54v11.482h2.54zm11.663-3.609h2.215c1.675 0 2.904-.377 3.691-1.149.787-.754 1.18-1.672 1.18-2.772 0-1.035-.263-1.887-.95-2.674-.69-.787-2.066-1.278-3.921-1.278h-4.757v11.482h2.54v-3.609h.002zm2.282-5.498c1.445 0 2.165.527 2.165 1.56 0 1.034-.756 1.558-2.266 1.558h-2.183v-3.12h2.284v.002zm15.372 9.107v-2.378h-6.38v-2.297h5.823v-2.295H75.33V8.086h6.234V5.711H72.79v11.482h8.921zm3.238 1.92v-1.92h7.368v1.92h2.378v-4.296h-1.33V5.713H85.02v1.376c0 3.461-.395 6.037-1.198 7.728h-1.247v4.296h2.376zm5.874-11.027v6.729h-4.382c.59-1.378.919-3.413.983-6.089l.016-.64h3.383zm12.938 2.104v7.003h2.543V5.71h-2.115l-5.564 7.037V5.71h-2.54v11.482h2.08l5.596-7.004zm7.45-2.104v9.107h2.54V8.086h3.691V5.711h-9.907v2.375h3.676zm17.652 9.107V5.71h-2.541v4.512h-5.105V5.71h-2.54v11.482h2.54v-4.595h5.105v4.595h2.541zm3.79 0l.934-2.133h4.807l.934 2.133h2.656L136.949 5.71h-1.887l-5.036 11.482h2.628zm4.806-4.28h-2.986l1.51-3.428 1.476 3.428zm15.058 4.28V5.71h-4.806c-1.559 0-2.742.361-3.56 1.082-.836.72-1.247 1.657-1.247 2.79 0 1.69.901 2.837 2.558 3.345l-3.376 4.265h2.999l2.938-3.79h1.954v3.79h2.54zm-5.052-6.167c-1.133 0-1.92-.625-1.92-1.461 0-.986.673-1.477 2.018-1.477h2.414v2.94h-2.512v-.002zM52.395 36.005v-3.854l.82-.836 3.888 4.69h3.346l-5.315-6.396 4.987-5.086h-3.312l-4.414 4.479v-4.479h-2.54v11.482h2.54z" fill="#fff"/><path d="M60.205 30.263c0 1.69.573 3.103 1.722 4.233 1.148 1.131 2.542 1.704 4.2 1.704 1.657 0 3.053-.573 4.199-1.704 1.13-1.13 1.704-2.542 1.704-4.233 0-1.69-.573-3.118-1.704-4.248-1.149-1.131-2.542-1.689-4.2-1.689-1.657 0-3.069.573-4.2 1.722-1.148 1.149-1.721 2.558-1.721 4.215zm3.608-2.509c.64-.64 1.412-.968 2.316-.968.87 0 1.641.328 2.297.968.64.64.968 1.477.968 2.511 0 1.033-.313 1.872-.935 2.512-.624.64-1.396.968-2.33.968-.904 0-1.675-.328-2.316-.968-.64-.64-.968-1.477-.968-2.512-.002-1.034.328-1.87.968-2.51zm20.125 8.251V24.523h-2.54v4.512h-5.105v-4.512h-2.54v11.482h2.54v-4.592h5.105v4.592h2.54zm10.984-3.788c-.806 1.017-1.872 1.526-3.168 1.526-1 0-1.82-.328-2.46-.968-.655-.64-.983-1.477-.983-2.512 0-1.066.328-1.904.968-2.545.64-.624 1.476-.934 2.509-.934.984 0 2.083.46 2.739 1.296l1.722-1.575c-.837-1.311-2.592-2.179-4.644-2.179-1.755 0-3.183.573-4.282 1.704-1.097 1.149-1.655 2.56-1.655 4.233 0 1.789.54 3.216 1.606 4.298 1.066 1.097 2.475 1.64 4.264 1.64 2.052 0 3.856-.853 4.889-2.36l-1.505-1.624zm8.155-1.984l-3.492-5.708h-3.15l5.349 8.418c-.214.46-.493.689-.821.689-.279 0-.524-.147-.705-.426l-1.639 1.492c.591.87 1.36 1.311 2.313 1.311 1.525 0 2.411-.852 3.281-2.687l4.166-8.794h-2.656l-2.646 5.705zm15.532 5.772V24.523h-8.611l-.016 1.296c-.033 2.442-.131 4.216-.279 5.346-.165 1.133-.394 1.84-.689 2.135-.294.312-.754.426-1.394.343v2.36c.214.033.426.049.656.049 1.051 0 1.624-.098 2.346-.69 1.033-.836 1.524-2.772 1.787-7.054l.065-1.329h3.595v9.024h2.54v.002zm6.985-5.299c1.476 0 2.215.476 2.215 1.428 0 1.001-.756 1.494-2.266 1.494h-2.086v-2.922h2.137zm-4.693-6.184v11.481h4.593c3.149 0 4.953-1.36 4.953-3.871 0-2.543-1.606-3.805-4.822-3.805h-2.165v-3.808h-2.559v.003zm11.858 2.379v9.104h2.54v-9.104h3.691v-2.378h-9.907v2.378h3.676zm7.411 9.104l.935-2.132h4.806l.934 2.132h2.657l-5.036-11.482h-1.887l-5.036 11.482h2.627zm4.806-4.278h-2.986l1.51-3.428 1.476 3.428zm14.385 4.278v1.92h2.359V33.63h-1.327v-9.107h-2.542v9.107h-4.644v-9.107h-2.54v11.482h8.694zm11.437-7.003v7.003h2.54V24.523h-2.114l-5.563 7.037v-7.037h-2.54v11.482h2.081l5.596-7.003zm14.199 7.003V24.523h-4.807c-1.559 0-2.741.362-3.559 1.082-.837.72-1.247 1.655-1.247 2.788 0 1.69.901 2.84 2.558 3.345l-3.377 4.267h3l2.938-3.79h1.953v3.79h2.541zm-5.052-6.165c-1.133 0-1.92-.624-1.92-1.46 0-.986.673-1.477 2.018-1.477h2.413v2.94h-2.511v-.003zm-8.217-24.13h-2.442v6.988l-5.302-6.987h-1.933v11.482h2.426v-6.955l5.317 6.955h1.934V5.71zm.627 3.64c0 .904.294 1.625.87 2.2.575.575 1.327.852 2.263.852.937 0 1.707-.279 2.28-.852.573-.573.87-1.296.87-2.2 0-1.821-1.245-3.032-3.15-3.032-1.889 0-3.133 1.213-3.133 3.033zm2.458-.722c.165-.18.394-.263.673-.263.542 0 .937.395.937.986 0 .64-.346 1.001-.937 1.001a.895.895 0 01-.658-.279c-.343-.36-.343-1.1-.015-1.445zm3.512 6.58v-2.13h-5.658v2.13h5.658zm2.166-5.545l2.052-.934v8.464H185V5.71h-1.605l-3.772 1.887.868 2.065z" fill="#fff"/></svg>